<?xml version="1.0" encoding="utf-8"?>
<!-- Generator: Adobe Illustrator 25.0.1, SVG Export Plug-In . SVG Version: 6.00 Build 0)  -->
<svg version="1.1" id="Layer_1" xmlns="http://www.w3.org/2000/svg" xmlns:xlink="http://www.w3.org/1999/xlink" x="0px" y="0px"
	 viewBox="0 0 2304 2304" style="enable-background:new 0 0 2304 2304;" xml:space="preserve">
<style type="text/css">
	.st0{stroke:#000000;stroke-miterlimit:10;}
</style>
<g>
	<g>
		<path d="M1152,72C555.5,72,72,555.5,72,1152s483.5,1080,1080,1080s1080-483.5,1080-1080S1748.5,72,1152,72z M1974,573.1
			c19.6,3.8,35.5,15.4,47.9,34.8c9.8,15.4,13.7,30.5,11.8,45.4c-1.9,14.9-9.4,27.5-22.6,37.7l-19.4-30.5c5.1-5.4,7.9-11.1,8.3-17.2
			s-1.5-12.6-5.8-19.3c-5.8-9.1-13.9-14-24.4-14.7s-22,2.9-34.5,10.8c-12.4,7.9-20.5,16.5-24.1,25.9c-3.7,9.4-2.7,18.6,3.1,27.6
			c4.6,7.3,10.1,12,16.5,14.1c6.4,2.1,13.3,1.6,20.7-1.6l19.1,30.2c-16.6,7.5-32.2,9-46.8,4.5c-14.6-4.5-26.8-14.4-36.7-30
			c-11.8-18.5-15.2-37.4-10.3-56.4c4.9-19.1,17.2-34.9,37-47.4C1934.4,573.9,1954.4,569.3,1974,573.1z M1965.8,1152
			c0,449.4-364.4,813.8-813.8,813.8S338.2,1601.4,338.2,1152S702.5,338.2,1152,338.2S1965.8,702.5,1965.8,1152z M1939.2,499.8
			l-113.9,98.1l-25-29.1l113.9-98.1L1939.2,499.8z M1786.2,348l92.9,83l-20.3,22.8l-32.1-28.7l-79.8,89.3l-28.7-25.6l79.8-89.3
			l-32.1-28.7L1786.2,348z M1587.1,336.8l31.3,19.6c-4.3,7.4-5.6,14.2-3.9,20.4s6.5,11.7,14.3,16.6c6.6,4.2,12.4,6.3,17.4,6.4
			s8.8-1.9,11.2-5.8c1.3-2,2-4.1,2.1-6.2s-0.3-4.1-1.4-5.9c-1.6-2.8-6.1-8.4-13.6-16.9s-13.7-16-18.4-22.5
			c-6.9-9.4-10.8-18.5-11.8-27.5c-1-8.9,1-17.4,6-25.4c7.6-12.2,18.3-19,31.9-20.4c13.6-1.4,28.3,2.7,43.9,12.5
			c15.3,9.6,25.1,21,29.4,34.2c4.3,13.2,2.3,26.2-5.7,39.1l-30.7-19.3c3-6.4,3.7-12.1,2-17.1c-1.7-5-5.9-9.6-12.4-13.7
			c-5.2-3.3-10.2-4.9-14.8-4.8c-4.6,0.1-8,1.8-10.1,5.2c-3.5,5.6,0.9,15.9,13.4,30.7c2.2,2.7,4,4.7,5.2,6.1l1,1.2
			c12.8,15.4,20.3,25.9,22.3,31.7c2,5.9,2.6,11.8,1.9,17.7c-0.7,5.9-2.8,11.6-6.3,17.1c-8,12.7-19,19.5-33.1,20.5
			c-14.1,1-30-4-47.5-15c-16.5-10.4-26.8-22.1-30.6-35.1C1576,367.3,1578.4,352.8,1587.1,336.8z M1511.1,194.6l39.1,15.6l-6.3,159.3
			l-38.4-15.3l1.7-29l-46.6-18.6l-18.2,22.4l-37.1-14.8L1511.1,194.6z M1313.7,141.4l37.8,7.9l-24,115.3l71.2,14.8l-6.6,31.9
			l-109-22.7L1313.7,141.4z M1131.4,128.6l68.7,2.4c17.4,0.6,30.5,5.1,39.3,13.5c8.8,8.4,13,20.2,12.4,35.4
			c-0.6,16-5.5,28.1-14.8,36.3c-9.3,8.2-22.3,12-39.2,11.4l-31.3-1.1l-1.9,53.6l-38.5-1.3L1131.4,128.6z M993.6,222.6l5.9,29.7
			l-51.3,10.1l-5.9-29.7L993.6,222.6z M673.2,266.9c6.1-18.6,19.7-32.8,40.6-42.7c21-9.9,40.7-11.4,59.1-4.3
			c18.4,7,32.8,21.5,43.2,43.6c10.4,22,12.5,42.4,6.2,61.1s-19.9,33-40.8,42.9c-20.9,9.9-40.5,11.3-58.8,4.3
			c-18.3-7.3-32.7-21.9-43.1-43.9C669.2,305.8,667,285.5,673.2,266.9z M605.1,286.2l17.9,24.7l-34.9,25.2l70.1,97.2l-31.3,22.5
			l-70.1-97.2l-34.9,25.2L504,359.1L605.1,286.2z M410.8,442.5c16-16.8,33.9-25.1,53.6-25.2c19.7,0,38.4,8.4,55.9,25.2
			c17.6,16.8,26.8,35.1,27.6,54.8c0.8,19.7-6.8,37.9-22.8,54.7c-16,16.7-33.8,25-53.4,25c-19.4,0-38-8.5-55.7-25.4
			c-17.6-16.9-26.9-35.1-27.8-54.7C387.3,477.3,394.8,459.2,410.8,442.5z M295.3,594.2c10.3-16.1,20.7-26,31.3-30
			c10.6-3.9,21.9-2.1,33.9,5.6c7.1,4.5,12.2,10.1,15.2,16.5c3,6.5,4,14.2,3.1,23.3c5.7-4.2,11.1-6.3,16.2-6.3s12.4,2.8,21.7,8.3
			c2.7,1.5,6.3,3.5,10.7,6.1c10.5,6.1,17.5,8.1,21.1,6.1l4.4,2.8l-21.7,34c-5.5-1.2-12.3-4.2-20.2-8.9c-7.9-4.8-13-7.7-15.1-8.7
			c-5.3-2.6-9.9-3.3-14-1.9c-4.1,1.3-7.9,4.8-11.5,10.4l-13.8,21.7l47.4,30.3l-20.7,32.2l-126.7-80.9L295.3,594.2z M208.6,758.1
			c6.5-16.1,15.2-26.9,26.1-32.4c10.9-5.4,23.4-5.3,37.5,0.4c14.8,6,24.5,14.8,29.1,26.3c4.5,11.5,3.7,25.1-2.7,40.8l-11.7,29
			l49.8,20.1l-14.6,36l-139.3-56.4L208.6,758.1z M260.4,1575.1l-23.1-53.2l71.9-31.3l8,18.4l-56.3,24.5l15.1,34.8L260.4,1575.1z
			 M313.6,1672.2l-30.5-52.7l67.9-39.2l29.8,51.6l-13.9,8l-19.7-34.2l-12,6.9l18,31.3l-13.6,7.9l-18-31.3l-14.5,8.4l20.4,35.3
			L313.6,1672.2z M385.1,1773.2l-12.9-17.3l8.6-12.4l-15.7-21l-14.2,5l-12.5-16.7l79.8-24.3l13.1,17.6L385.1,1773.2z M493.9,1833.9
			c-9.4,9.1-18.7,13.5-27.8,13.4c-9.1-0.1-18.2-4.8-27.1-14.2l-21.5-22.3l56.6-54.3l23.2,24.2c8,8.4,11.8,17.1,11.2,26.3
			C507.9,1816.1,503,1825.1,493.9,1833.9z M579.6,1895.2l-9.9,12.1l-27.9-22.9l-10.6,13l31.5,25.8l-10.1,12.4l-47.1-38.4l49.7-60.7
			l46.1,37.7l-10.2,12.4l-30.6-25l-8.8,10.7L579.6,1895.2z M682.7,1955.2c-2.4,3.7-5.2,6.4-8.6,7.9c-3.4,1.6-7.4,2.1-12.1,1.7
			c2.2,3,3.3,5.8,3.3,8.4c0,2.7-1.5,6.4-4.3,11.4c-0.8,1.4-1.8,3.3-3.2,5.6c-3.2,5.5-4.2,9.1-3.1,11l-1.5,2.3l-17.7-11.3
			c0.6-2.9,2.2-6.4,4.6-10.6c2.5-4.1,4-6.8,4.5-7.9c1.4-2.7,1.7-5.2,1-7.3c-0.7-2.1-2.5-4.1-5.5-6l-11.3-7.2l-15.7,24.7l-17-10.7
			l42.1-66.1l31.7,20.1c8.4,5.3,13.6,10.8,15.7,16.3C687.7,1943,686.7,1948.9,682.7,1955.2z M778.4,2006.1l-17-8.1
			c1.2-3.5,1.2-6.5,0-9c-1.2-2.5-3.6-4.6-7.3-6.4c-2.9-1.4-5.6-1.9-8-1.6c-2.4,0.3-4,1.4-4.9,3.3c-1.5,3.1,1.4,8.2,8.8,15.1
			c1.3,1.3,2.3,2.2,3.1,2.9l0.6,0.6c7.6,7.2,12,12.2,13.4,15.1c1.4,2.9,2.1,6,2.1,9c0,3.1-0.8,6.2-2.2,9.2c-3.4,7-8.7,11.2-16,12.6
			c-7.3,1.3-15.8-0.3-25.5-5c-9.2-4.4-15.2-9.8-18-16.3c-2.8-6.6-2.4-14.3,1.1-23.1l17.4,8.3c-1.8,4.1-2.1,7.7-0.8,10.8
			c1.3,3.1,4.1,5.7,8.4,7.8c3.7,1.8,6.8,2.5,9.4,2.3c2.6-0.3,4.4-1.5,5.5-3.7c0.5-1.1,0.8-2.2,0.7-3.3c-0.1-1.1-0.4-2.1-1.1-3
			c-1-1.3-3.7-4-8.1-7.9c-4.4-4-8-7.5-10.9-10.6c-4.1-4.4-6.7-9-7.8-13.5c-1.1-4.6-0.5-9.1,1.6-13.5c3.2-6.8,8.3-10.9,15.3-12.5
			s14.8-0.3,23.5,3.9c8.5,4.1,14.3,9.4,17.3,16C782,1992.1,781.8,1998.9,778.4,2006.1z M941.3,2116.2l-21-5.3l-8.4-29.5
			c-1-3.5-2-7.4-3.1-11.6c-1.1-4.3-2.3-8.9-3.5-13.9c-0.9,5-1.8,9.7-2.7,14c-0.9,4.3-1.8,8.1-2.6,11.4l-5.8,22.9l-18.8-4.8l19.3-76
			l21,5.3l8,28.6c1.3,4.7,2.5,9.2,3.6,13.8c1.1,4.5,2.1,9,2.9,13.3c1.2-5.8,2.3-11.2,3.5-16.3c1.1-5.1,2.2-9.5,3.2-13.3l4.9-19.4
			l18.8,4.8L941.3,2116.2z M1077.6,2097c-1.5,12.6-6.2,22.2-14.2,28.7c-7.9,6.5-17.9,9.1-29.9,7.6c-12-1.4-21-6.2-27.1-14.4
			c-6.2-8.3-8.5-18.7-7-31.3c1.5-12.6,6.2-22.2,14.1-28.7s17.8-9,29.8-7.6c12,1.4,21.1,6.3,27.3,14.5
			C1076.8,2074,1079.1,2084.4,1077.6,2097z M1163.1,2138l-20,0.3l-1-62.5l-22.5,0.4l-0.3-15.9l65-1.1l0.3,15.9l-22.5,0.4
			L1163.1,2138z M1326.4,2122.8l-19.6,3.5l-14.2-77.1l55.3-10.2l3,16l-35.7,6.6l2.9,16l31-5.7l2.9,16l-31,5.7L1326.4,2122.8z
			 M1471.7,2076c-4.6,9.2-12.6,15.6-24.2,19.2c-11.5,3.6-21.7,2.9-30.7-2c-8.8-4.9-15.2-13.4-19-25.6c-3.8-12.2-3.5-22.8,1.1-32
			c4.5-9.2,12.5-15.5,24-19.2c11.5-3.6,21.8-2.9,30.8,2c9,5,15.4,13.5,19.2,25.6C1476.7,2056.1,1476.3,2066.8,1471.7,2076z
			 M1535.2,2061.2l-32.3-71.4l18.3-8.3l25.3,56l34.6-15.6l7,15.5L1535.2,2061.2z M1632.3,2013.8l-40-67.4l17.3-10.3l31.3,52.8
			l32.6-19.3l8.7,14.6L1632.3,2013.8z M1766.8,1912.2c-1.2,10.2-6.6,19-16.2,26.3s-19.4,10.2-29.5,8.5c-10.2-1.6-19.1-7.4-26.8-17.6
			c-7.7-10.1-11-20.3-9.9-30.4c1.1-10.2,6.5-18.9,16.1-26.2c9.6-7.3,19.5-10.2,29.7-8.6c10.2,1.6,19.1,7.4,26.8,17.5
			C1764.7,1891.8,1768,1902,1766.8,1912.2z M1860.6,1837.8l-47.9-31.7l32.2,47.6l-13.7,13.9l-70.8-39.9l14.2-14.3l47.2,31.3
			l-32.2-46.6l15.1-15.2l46.8,31.8l-31.8-47l14.2-14.3l40.5,70.5L1860.6,1837.8z M1920.9,1770.1l-62.5-47.4l36-47.5l12.8,9.7
			l-23.9,31.5l11,8.4l21.8-28.8l12.5,9.5l-21.8,28.8l13.4,10.1l24.6-32.5l12.8,9.7L1920.9,1770.1z M2010.8,1636.9
			c-2.9-0.5-6.5-1.9-10.7-4.2c-4.2-2.3-6.9-3.7-8.1-4.2c-2.8-1.3-5.2-1.5-7.3-0.7c-2.1,0.8-4,2.7-5.8,5.7l-6.8,11.6l25.3,14.8
			l-9.9,17.2l-67.7-39.6l18.9-32.4c5-8.6,10.2-14,15.7-16.3c5.4-2.3,11.4-1.5,17.8,2.2c3.8,2.2,6.5,5,8.2,8.3
			c1.7,3.3,2.4,7.3,2.1,12.1c2.9-2.3,5.6-3.5,8.3-3.6c2.7-0.1,6.5,1.2,11.5,3.9c1.4,0.7,3.3,1.7,5.7,3c5.6,3,9.3,3.9,11.1,2.7
			l2.3,1.4L2010.8,1636.9z M2059.2,1545.1c-4,9.3-9.3,15.5-15.7,18.6c-6.4,3.1-14.1,2.7-23.1-0.5l7.6-17.7c4.2,1.6,7.8,1.8,10.8,0.4
			c3.1-1.4,5.5-4.3,7.4-8.7c1.6-3.7,2.3-6.9,1.9-9.5c-0.4-2.6-1.6-4.4-3.9-5.3c-1.1-0.5-2.3-0.7-3.4-0.6c-1.1,0.1-2.1,0.5-2.9,1.2
			c-1.3,1-3.8,3.8-7.6,8.4c-3.8,4.5-7.2,8.3-10.1,11.3c-4.3,4.3-8.7,7.1-13.2,8.3s-9,0.9-13.5-1.1c-6.9-3-11.2-7.9-13-14.8
			s-0.8-14.8,3-23.6c3.7-8.7,8.9-14.6,15.3-17.8c6.5-3.2,13.3-3.3,20.6-0.1l-7.5,17.3c-3.5-1.1-6.5-0.9-9,0.3
			c-2.4,1.3-4.5,3.8-6.1,7.5c-1.3,3-1.7,5.6-1.3,8c0.4,2.4,1.6,4,3.5,4.8c3.2,1.4,8.1-1.7,14.8-9.3c1.2-1.4,2.1-2.4,2.8-3.2l0.6-0.6
			c6.9-7.8,11.8-12.5,14.6-14c2.9-1.5,5.9-2.3,8.9-2.4c3.1-0.1,6.2,0.5,9.3,1.9c7.2,3.1,11.6,8.3,13.2,15.5
			C2064.8,1526.6,2063.5,1535.2,2059.2,1545.1z M2081.9,846.6l-13.3-33.7c6.2-3.3,10.1-7.5,11.7-12.6c1.6-5.1,0.9-11.2-1.9-18.4
			c-2.3-5.8-5.3-10-9.1-12.6c-3.8-2.7-7.5-3.3-11.2-1.8c-6.2,2.5-8.7,13.3-7.4,32.7c0.2,3.5,0.4,6.2,0.5,8l0.1,1.6
			c1.3,20,1,32.9-0.8,38.7c-1.9,5.9-4.9,11.1-8.9,15.4c-4,4.3-9.1,7.7-15.2,10.1c-13.9,5.5-26.9,4.5-38.8-3.1
			c-12-7.6-21.8-21-29.4-40.2c-7.2-18.2-8.5-33.6-4-46.4c4.6-12.8,15.1-23.1,31.5-30.9l13.6,34.3c-7.9,3.4-12.9,8.1-15.2,14.1
			c-2.3,6-1.7,13.3,1.7,21.8c2.9,7.3,6.3,12.4,10.3,15.5c4,3,8.2,3.7,12.5,2c2.2-0.9,4-2.1,5.4-3.8c1.4-1.6,2.1-3.5,2.4-5.5
			c0.4-3.1,0-10.4-1-21.7s-1.5-21-1.5-29c0-11.6,2.2-21.4,6.7-29.2c4.5-7.8,11.1-13.4,19.8-16.9c13.3-5.3,25.9-4.5,37.8,2.4
			c11.8,6.9,21.2,18.9,28,36.1c6.7,16.8,7.8,31.8,3.4,45C2105.2,831.7,2096,841,2081.9,846.6z"/>
		<path d="M346.9,633l-15.4,24.2l-28.9-18.5l16-25c3.9-6.1,7.9-10,12.1-11.5c4.1-1.6,8.6-0.9,13.2,2.1c5.3,3.4,8.2,7.4,8.6,12
			S351.1,626.5,346.9,633z"/>
		<path d="M502.4,530.1c-8.1,8.4-17.2,12.1-27.4,10.9c-10.2-1.1-20.8-7-31.9-17.6c-11.1-10.6-17.4-20.9-19-31.2
			c-1.6-10.1,1.7-19.4,9.7-27.8c8.1-8.5,17.3-12.1,27.6-11c10.3,1.1,20.9,7,31.9,17.5c11.1,10.6,17.4,21,18.9,31.2
			C513.8,512.3,510.5,521.6,502.4,530.1z"/>
		<path d="M787.1,315.9c-2.2,10.1-8.6,17.6-19.2,22.6c-10.6,5-20.4,5.1-29.5,0.4c-9.1-4.7-17-14-23.5-27.8s-8.7-25.7-6.6-35.9
			c2.2-10,8.5-17.5,19-22.5c10.6-5,20.5-5.1,29.7-0.4s17.1,13.9,23.6,27.7C787.1,293.9,789.3,305.8,787.1,315.9z"/>
		<path d="M1214.1,179.7c-0.2,6.1-2,10.7-5.4,13.5c-3.4,2.8-8.6,4.1-15.5,3.9l-25.5-0.9l1.2-36l25.1,0.9c6.9,0.3,12.1,1.9,15.4,5
			C1212.8,169.2,1214.3,173.7,1214.1,179.7z"/>
		<polygon points="1514.6,238.8 1511,293.2 1480.5,281 		"/>
		<path d="M1966.3,1624.3l-7.5,12.9l-15.4-9l7.8-13.4c1.9-3.2,4-5.3,6.1-6.2c2.1-0.9,4.4-0.7,6.9,0.8c2.8,1.7,4.4,3.7,4.7,6.1
			C1969.2,1617.9,1968.3,1620.8,1966.3,1624.3z"/>
		<path d="M1747.8,1911.8c0,5.4-2.4,9.9-7.3,13.6c-4.8,3.7-9.8,4.8-15,3.4c-5.2-1.5-10.2-5.4-15-11.7c-4.8-6.4-7.3-12.2-7.2-17.6
			c0-5.3,2.4-9.8,7.2-13.5c4.9-3.7,9.9-4.8,15.1-3.4c5.2,1.4,10.2,5.3,15,11.6C1745.4,1900.6,1747.8,1906.4,1747.8,1911.8z"/>
		<path d="M1454.1,2069.2c-1.8,5-5.7,8.5-11.5,10.3c-5.7,1.8-10.8,1.2-15.2-1.9c-4.3-3.1-7.7-8.5-10.1-16.1
			c-2.4-7.6-2.7-13.9-1-18.9c1.8-5.1,5.6-8.5,11.4-10.3c5.9-1.8,11-1.2,15.4,1.9c4.4,3.1,7.8,8.4,10.2,16
			C1455.7,2057.8,1455.9,2064.2,1454.1,2069.2z"/>
		<path d="M1057.3,2094.5c-1,7.9-3.3,13.8-7.1,17.6c-3.7,3.9-8.6,5.4-14.7,4.7c-6-0.7-10.4-3.4-13.1-8c-2.8-4.6-3.6-10.9-2.7-18.8
			c0.9-7.9,3.3-13.8,7.1-17.6c3.7-3.9,8.6-5.4,14.6-4.7s10.4,3.4,13.2,8C1057.3,2080.3,1058.2,2086.6,1057.3,2094.5z"/>
		<path d="M664.5,1946.5c-1.7,2.8-3.8,4.3-6.2,4.5c-2.4,0.2-5.3-0.7-8.7-2.9l-12.6-8l9.5-15.1l13.1,8.3c3.2,2,5.2,4.1,6,6.3
			C666.4,1941.8,666,1944.1,664.5,1946.5z"/>
		<path d="M489.1,1804c-0.6,4.7-3.7,9.7-9.4,15.1c-5.6,5.4-10.8,8.4-15.4,8.8c-4.6,0.4-9.1-1.6-13.4-6.1l-7.6-7.9l32.7-31.4l7.6,7.9
			C487.9,1794.9,489.7,1799.4,489.1,1804z"/>
		<polygon points="407.7,1707.1 391.3,1730.3 381,1716.6 		"/>
		<path d="M268.3,787.2l-9.6,23.7l-33.5-13.5l9.4-23.3c2.7-6.5,6-10.7,10-12.8c4.1-2,8.9-1.9,14.4,0.3c5.8,2.3,9.4,5.5,10.9,9.7
			C271.5,775.5,270.9,780.8,268.3,787.2z"/>
	</g>
	<g>
		<path class="st0" d="M429.7,1131.1v50.9h-9.8v-36.6c-3.6,3.3-7.8,5.8-12.6,7.4v-8.8c2.6-0.8,5.3-2.4,8.3-4.7c3-2.3,5-5,6.2-8.1
			h7.9V1131.1z"/>
		<polygon class="st0" points="435.9,1088.5 435.9,1097 397,1097 397,1046.4 434.9,1046.4 434.9,1054.9 407.4,1054.9 407.4,1066.2 
			432.9,1066.2 432.9,1074.7 407.4,1074.7 407.4,1088.5 		"/>
		<path class="st0" d="M472.7,1137c-3.3-4-7.6-6-12.7-6c-4.8,0-8.7,1.6-11.7,4.7c-3.1,3.1-4.6,7.3-4.6,12.4c0,4.9,1.4,8.9,4.4,12
			c2.9,3.1,6.4,4.6,10.4,4.6c3.7,0,6.8-1.4,9.2-4.2c-0.4,5.8-1.3,9.6-2.7,11.5c-1.4,1.8-3.1,2.8-5.1,2.8c-1.6,0-2.9-0.5-3.9-1.4
			s-1.6-2.3-1.8-4.2l-9.5,1c0.7,4.2,2.3,7.4,4.7,9.5c2.5,2.1,5.7,3.1,9.7,3.1c5.5,0,10-2,13.5-6.1s5.2-10.8,5.2-20
			C477.7,1147.5,475.9,1141,472.7,1137z M464.7,1155.5c-1.3,1.5-2.9,2.2-4.7,2.2c-2,0-3.6-0.8-4.9-2.3c-1.3-1.5-2-3.9-2-7.2
			c0-3.2,0.6-5.5,1.8-7c1.2-1.4,2.7-2.1,4.5-2.1c1.9,0,3.6,0.8,5,2.6c1.4,1.7,2.2,4.2,2.2,7.3C466.7,1151.9,466,1154,464.7,1155.5z"
			/>
		<path class="st0" d="M483.4,1082.3c0,2.9-0.8,5.6-2.4,8.2c-1.6,2.5-3.9,4.4-6.9,5.7c-3,1.2-6.7,1.9-11.1,1.9
			c-6.4,0-11.4-1.5-14.9-4.5c-3.5-2.9-5.5-7.3-6.2-12.9l10-1c0.6,3.3,1.8,5.8,3.7,7.4s4.3,2.3,7.5,2.3c3.3,0,5.8-0.7,7.5-2.1
			s2.5-3,2.5-4.9c0-1.2-0.3-2.2-1-3.1c-0.7-0.8-2-1.6-3.7-2.2c-1.2-0.4-3.9-1.2-8.2-2.2c-5.5-1.4-9.4-3-11.6-5
			c-3.1-2.8-4.7-6.2-4.7-10.2c0-2.6,0.7-5,2.2-7.2s3.6-4,6.4-5.1c2.8-1.2,6.1-1.8,10-1.8c6.4,0,11.2,1.4,14.5,4.2
			c3.2,2.8,4.9,6.5,5.1,11.2l-10.3,0.4c-0.4-2.6-1.4-4.5-2.8-5.6c-1.5-1.2-3.6-1.7-6.5-1.7c-3,0-5.3,0.6-7,1.8
			c-1.1,0.8-1.6,1.8-1.6,3.1c0,1.2,0.5,2.2,1.5,3.1c1.3,1.1,4.5,2.2,9.5,3.4c5,1.2,8.7,2.4,11.1,3.6c2.4,1.3,4.3,3,5.6,5.1
			C482.7,1076.4,483.4,1079.1,483.4,1082.3z"/>
		<path class="st0" d="M513.7,1153.7c-2.9-3.1-6.4-4.6-10.5-4.6c-3.6,0-6.6,1.4-9.1,4.3c0.4-5.8,1.3-9.7,2.7-11.5s3.2-2.8,5.3-2.8
			c1.6,0,2.8,0.5,3.8,1.4s1.6,2.3,1.8,4.3l9.5-1c-0.7-4.1-2.3-7.2-4.9-9.4c-2.5-2.1-5.7-3.2-9.6-3.2c-5.5,0-10,2.1-13.5,6.2
			s-5.2,10.8-5.2,20.1c0,9.1,1.6,15.6,5,19.5s7.6,6,12.7,6c4.8,0,8.7-1.6,11.8-4.7s4.6-7.3,4.6-12.5
			C518,1160.7,516.5,1156.8,513.7,1153.7z M506.7,1172.7c-1.2,1.4-2.7,2.1-4.5,2.1c-1.9,0-3.5-0.9-5-2.6s-2.2-4.2-2.2-7.3
			c0-2.9,0.6-5,2-6.5c1.3-1.5,2.9-2.2,4.8-2.2c2,0,3.6,0.8,4.9,2.3c1.3,1.5,2,3.9,2,7.2C508.4,1168.9,507.9,1171.2,506.7,1172.7z"/>
		<polygon class="st0" points="528.9,1046.4 528.9,1054.9 513.9,1054.9 513.9,1097 503.5,1097 503.5,1054.9 488.4,1054.9 
			488.4,1046.4 		"/>
		<path class="st0" d="M557,1132v7c-2.8,2.7-5.6,6.6-8.4,11.6c-2.9,5-5,10.4-6.5,16.1s-2.2,10.7-2.2,15.2h-9.4
			c0.2-7,1.6-14.1,4.4-21.4c2.7-7.3,6.4-13.8,11-19.5h-22.2v-9L557,1132L557,1132z"/>
		<rect x="555.4" y="1087.3" class="st0" width="9.8" height="9.7"/>
		<path class="st0" d="M773.4,1176.5v24.2c0,5.5-0.3,9.4-0.8,11.7c-0.5,2.3-1.4,4.2-2.8,5.8c-1.4,1.6-3.2,2.8-5.5,3.7
			c-2.3,0.9-5.3,1.4-8.9,1.4c-4.4,0-7.8-0.5-10.1-1.5s-4.1-2.3-5.4-3.9c-1.3-1.6-2.2-3.3-2.6-5.1c-0.6-2.6-0.9-6.5-0.9-11.7v-24.6
			h9.4v24.9c0,3.9,0.1,6.5,0.4,7.7c0.4,1.9,1.4,3.4,2.9,4.5s3.6,1.7,6.2,1.7c2.7,0,4.7-0.5,6-1.6c1.4-1.1,2.1-2.4,2.4-4
			c0.3-1.6,0.4-4.2,0.4-7.8v-25.5h9.3V1176.5z"/>
		<rect x="783.2" y="1213.7" class="st0" width="8.9" height="8.8"/>
		<path class="st0" d="M836.5,1209.1c0,2.6-0.7,5.1-2.2,7.4s-3.5,4-6.3,5.1c-2.7,1.1-6.1,1.7-10.1,1.7c-5.9,0-10.4-1.4-13.5-4
			c-3.1-2.7-5-6.6-5.6-11.8l9.1-0.9c0.5,3,1.7,5.3,3.3,6.7c1.7,1.4,3.9,2.1,6.8,2.1c3,0,5.3-0.6,6.8-1.9s2.3-2.7,2.3-4.5
			c0-1.1-0.3-2-1-2.8c-0.6-0.8-1.8-1.4-3.4-2c-1.1-0.4-3.6-1-7.5-2c-5-1.2-8.5-2.7-10.5-4.5c-2.8-2.5-4.3-5.6-4.3-9.3
			c0-2.3,0.7-4.5,2-6.6s3.3-3.6,5.8-4.7s5.6-1.6,9.1-1.6c5.8,0,10.2,1.3,13.1,3.8c2.9,2.5,4.5,5.9,4.6,10.2l-9.4,0.4
			c-0.4-2.3-1.3-4.1-2.6-5.1s-3.3-1.6-5.9-1.6c-2.7,0-4.8,0.6-6.4,1.7c-1,0.7-1.5,1.7-1.5,2.9c0,1.1,0.5,2,1.4,2.8
			c1.2,1,4,2,8.6,3.1c4.5,1.1,7.9,2.2,10.1,3.3c2.2,1.2,3.9,2.7,5.1,4.7C835.9,1203.7,836.5,1206.2,836.5,1209.1z"/>
		<rect x="844.4" y="1213.7" class="st0" width="8.9" height="8.8"/>
		<path class="st0" d="M885.7,1176.5h-9.9l-18,46h9.9l3.8-10.5h18.6l4,10.5h10.2L885.7,1176.5z M874.4,1204.3l6.3-17.1l6.4,17.1
			H874.4z"/>
		<rect x="909.2" y="1213.7" class="st0" width="8.9" height="8.8"/>
		<path class="st0" d="M953.7,1213.7v6.3c0,2.6-0.2,4.6-0.7,6.1c-0.4,1.5-1.3,2.8-2.5,4s-2.8,2.1-4.7,2.8l-1.7-3.6
			c1.8-0.6,3.1-1.4,3.8-2.4c0.8-1,1.2-2.4,1.2-4.2h-4.3v-8.8h8.9V1213.7z"/>
		<rect x="980.9" y="1176.5" class="st0" width="9.4" height="46"/>
		<path class="st0" d="M1029.7,1201.8v20.7h-8.9v-17c0-3.6-0.2-5.9-0.6-7c-0.4-1.1-1-1.9-1.9-2.5c-0.8-0.6-1.9-0.9-3.1-0.9
			c-1.6,0-2.9,0.4-4.1,1.3c-1.2,0.8-2.1,2-2.5,3.3c-0.5,1.4-0.7,3.9-0.7,7.7v15.1H999v-33.3h8.2v4.9c2.9-3.8,6.6-5.7,11.1-5.7
			c2,0,3.7,0.3,5.4,1c1.6,0.7,2.9,1.6,3.7,2.7s1.4,2.3,1.7,3.7C1029.4,1197.3,1029.7,1199.2,1029.7,1201.8z"/>
		<path class="st0" d="M1068.4,1211.2c-0.9,4-2.6,7-5.2,9c-2.6,2-6,3.1-10.3,3.1c-4.9,0-8.8-1.6-11.7-4.6c-2.9-3.1-4.4-7.3-4.4-12.8
			s1.5-9.8,4.4-12.9s6.9-4.6,11.9-4.6c4.1,0,7.3,0.9,9.8,2.6c2.4,1.8,4.1,4.4,5.2,8l-8.8,1.6c-0.3-1.7-1-3-2-3.9s-2.4-1.3-4.1-1.3
			c-2.2,0-4,0.8-5.3,2.3s-2,4.1-2,7.6c0,3.9,0.7,6.7,2,8.4c1.4,1.6,3.1,2.4,5.4,2.4c1.7,0,3.1-0.5,4.1-1.4c1.1-1,1.8-2.6,2.3-4.9
			L1068.4,1211.2z"/>
		<rect x="1092.7" y="1213.7" class="st0" width="8.9" height="8.8"/>
		<path class="st0" d="M1203.4,1208.4c-1.4,5-3.7,8.8-7,11.2c-3.2,2.4-7.3,3.7-12.3,3.7c-6.2,0-11.2-2.1-15.2-6.2
			c-4-4.2-5.9-9.9-5.9-17.1c0-7.7,2-13.6,6-17.8c4-4.2,9.2-6.4,15.7-6.4c5.7,0,10.3,1.7,13.8,5c2.1,2,3.7,4.8,4.7,8.5l-9.3,2.2
			c-0.6-2.4-1.7-4.3-3.4-5.7c-1.7-1.4-3.9-2.1-6.3-2.1c-3.4,0-6.2,1.2-8.4,3.7c-2.1,2.5-3.2,6.4-3.2,11.9c0,5.8,1,10,3.1,12.4
			c2.1,2.5,4.9,3.7,8.2,3.7c2.5,0,4.6-0.8,6.4-2.3c1.8-1.6,3.1-4.1,3.9-7.4L1203.4,1208.4z"/>
		<path class="st0" d="M1238.9,1218c-0.3-1.4-0.4-3.5-0.4-6.5l0.1-10.3c0-3.8-0.4-6.5-1.2-7.9s-2.1-2.6-4.1-3.5s-4.9-1.4-8.9-1.4
			c-4.4,0-7.6,0.8-9.9,2.3c-2.2,1.6-3.8,3.9-4.7,7.2l8.1,1.4c0.5-1.5,1.3-2.6,2.1-3.2c0.9-0.6,2.1-0.9,3.7-0.9
			c2.3,0,3.9,0.4,4.8,1.1c0.8,0.7,1.3,1.9,1.3,3.6v0.9c-1.6,0.7-4.5,1.4-8.6,2.2c-3.1,0.6-5.5,1.3-7.1,2.1c-1.6,0.8-2.9,1.9-3.8,3.4
			c-0.9,1.5-1.4,3.1-1.4,5c0,2.8,1,5.2,3,7.1s4.7,2.8,8.2,2.8c2,0,3.8-0.4,5.5-1.1s3.3-1.8,4.9-3.3c0.1,0.2,0.2,0.5,0.3,1
			c0.3,1.2,0.6,2,0.8,2.6h8.8C1239.9,1220.9,1239.3,1219.4,1238.9,1218z M1229.9,1208.3c0,2.1-0.1,3.5-0.4,4.3
			c-0.3,1.2-1,2.1-2.1,2.9c-1.5,1.1-3,1.6-4.6,1.6c-1.4,0-2.6-0.4-3.5-1.4c-0.9-0.9-1.4-2-1.4-3.2c0-1.3,0.6-2.3,1.8-3.1
			c0.8-0.5,2.4-1,4.8-1.6c2.5-0.5,4.3-1,5.4-1.4L1229.9,1208.3L1229.9,1208.3z"/>
		<path class="st0" d="M1277.9,1201.8v20.7h-8.9v-17c0-3.6-0.2-5.9-0.6-7c-0.4-1.1-1-1.9-1.9-2.5c-0.8-0.6-1.9-0.9-3.1-0.9
			c-1.5,0-2.9,0.4-4.1,1.3c-1.2,0.8-2.1,2-2.5,3.3c-0.5,1.4-0.7,3.9-0.7,7.7v15.1h-8.9v-33.3h8.3v4.9c2.9-3.8,6.6-5.7,11.1-5.7
			c2,0,3.7,0.3,5.4,1c1.6,0.7,2.8,1.6,3.7,2.7c0.8,1.1,1.4,2.3,1.7,3.7C1277.8,1197.3,1277.9,1199.2,1277.9,1201.8z"/>
		<path class="st0" d="M1314.6,1218c-0.3-1.4-0.4-3.5-0.4-6.5l0.1-10.3c0-3.8-0.4-6.5-1.2-7.9c-0.8-1.4-2.2-2.6-4.1-3.5
			c-2-0.9-4.9-1.4-8.9-1.4c-4.4,0-7.6,0.8-9.9,2.3c-2.2,1.6-3.8,3.9-4.7,7.2l8.1,1.4c0.5-1.5,1.3-2.6,2.2-3.2s2.1-0.9,3.7-0.9
			c2.3,0,3.9,0.4,4.8,1.1c0.8,0.7,1.3,1.9,1.3,3.6v0.9c-1.6,0.7-4.5,1.4-8.6,2.2c-3.1,0.6-5.5,1.3-7.1,2.1c-1.6,0.8-2.9,1.9-3.8,3.4
			c-0.9,1.5-1.4,3.1-1.4,5c0,2.8,1,5.2,3,7.1s4.7,2.8,8.2,2.8c2,0,3.8-0.4,5.5-1.1s3.3-1.8,4.9-3.3c0.1,0.2,0.2,0.5,0.3,1
			c0.3,1.2,0.6,2,0.8,2.6h8.8C1315.4,1220.9,1314.9,1219.4,1314.6,1218z M1305.4,1208.3c0,2.1-0.1,3.5-0.4,4.3
			c-0.3,1.2-1,2.1-2.1,2.9c-1.5,1.1-3,1.6-4.6,1.6c-1.4,0-2.6-0.4-3.5-1.4c-0.9-0.9-1.4-2-1.4-3.2c0-1.3,0.6-2.3,1.8-3.1
			c0.8-0.5,2.4-1,4.8-1.6c2.5-0.5,4.3-1,5.4-1.4L1305.4,1208.3L1305.4,1208.3z"/>
		<path class="st0" d="M1344.9,1176.5v16.6c-2.7-3.1-6-4.6-9.8-4.6c-4.1,0-7.5,1.5-10.2,4.4s-4,7.2-4,12.9c0,5.5,1.4,9.8,4.1,12.9
			c2.8,3.1,6.1,4.6,9.9,4.6c1.9,0,3.8-0.5,5.6-1.4c1.9-0.9,3.5-2.3,4.9-4.3v4.9h8.3v-46H1344.9z M1342.8,1213.7
			c-1.4,1.7-3.2,2.6-5.2,2.6c-2.6,0-4.6-1.2-6-3.4c-1-1.6-1.5-4.2-1.5-7.7c0-3.3,0.7-5.8,2.1-7.4c1.4-1.7,3.2-2.5,5.3-2.5
			c2.2,0,3.9,0.8,5.3,2.5c1.4,1.7,2.1,4.5,2.1,8.3C1344.9,1209.4,1344.3,1212,1342.8,1213.7z"/>
		<path class="st0" d="M1390.1,1218c-0.3-1.4-0.4-3.5-0.4-6.5l0.1-10.3c0-3.8-0.4-6.5-1.2-7.9s-2.1-2.6-4.1-3.5s-4.9-1.4-8.9-1.4
			c-4.4,0-7.6,0.8-9.9,2.3c-2.2,1.6-3.8,3.9-4.7,7.2l8.1,1.4c0.5-1.5,1.3-2.6,2.1-3.2c0.9-0.6,2.1-0.9,3.7-0.9
			c2.3,0,3.9,0.4,4.8,1.1c0.8,0.7,1.3,1.9,1.3,3.6v0.9c-1.6,0.7-4.5,1.4-8.6,2.2c-3.1,0.6-5.5,1.3-7.1,2.1c-1.6,0.8-2.9,1.9-3.8,3.4
			c-0.9,1.5-1.4,3.1-1.4,5c0,2.8,1,5.2,3,7.1s4.7,2.8,8.2,2.8c2,0,3.8-0.4,5.5-1.1s3.3-1.8,4.9-3.3c0.1,0.2,0.2,0.5,0.3,1
			c0.3,1.2,0.6,2,0.8,2.6h8.8C1390.9,1220.9,1390.4,1219.4,1390.1,1218z M1381.1,1208.3c0,2.1-0.1,3.5-0.4,4.3
			c-0.3,1.2-1,2.1-2.1,2.9c-1.5,1.1-3,1.6-4.6,1.6c-1.4,0-2.6-0.4-3.5-1.4c-0.9-0.9-1.4-2-1.4-3.2c0-1.3,0.6-2.3,1.8-3.1
			c0.8-0.5,2.4-1,4.8-1.6c2.5-0.5,4.3-1,5.4-1.4V1208.3L1381.1,1208.3z"/>
		<path class="st0" d="M1425.3,1213.7v6.3c0,2.6-0.2,4.6-0.7,6.1c-0.4,1.5-1.3,2.8-2.5,4s-2.8,2.1-4.7,2.8l-1.8-3.6
			c1.8-0.6,3.1-1.4,3.8-2.4c0.8-1,1.2-2.4,1.2-4.2h-4.3v-8.8h9V1213.7z"/>
		<polygon class="st0" points="1485.4,1214.8 1485.4,1222.5 1452.9,1222.5 1452.9,1176.9 1462.3,1176.9 1462.3,1214.8 		"/>
		<path class="st0" d="M1508.3,1221.9c-2.1,0.9-4.4,1.3-7,1.3c-1.6,0-3-0.3-4.3-0.8s-2.2-1.2-2.8-2.1c-0.6-0.8-1-2-1.2-3.4
			c-0.2-1-0.3-3.1-0.3-6.2v-14.5h-4.1v-7h4.1v-6.6l8.9-5.1v11.8h6.1v7h-6.1v13.4c0,2.7,0.1,4.3,0.2,4.8c0.1,0.4,0.4,0.8,0.8,1.1
			c0.4,0.3,0.9,0.4,1.5,0.4c0.8,0,2-0.3,3.6-0.9L1508.3,1221.9z"/>
		<path class="st0" d="M1535.6,1176.5v16.6c-2.7-3.1-6-4.6-9.7-4.6c-4.1,0-7.5,1.5-10.2,4.4s-4,7.2-4,12.9c0,5.5,1.4,9.8,4.1,12.9
			s6.1,4.6,9.9,4.6c1.9,0,3.8-0.5,5.7-1.4s3.5-2.3,4.9-4.3v4.9h8.2v-46H1535.6z M1533.4,1213.7c-1.4,1.7-3.2,2.6-5.2,2.6
			c-2.6,0-4.6-1.2-6-3.4c-1-1.6-1.5-4.2-1.5-7.7c0-3.3,0.7-5.8,2.1-7.4c1.4-1.7,3.2-2.5,5.3-2.5c2.2,0,4,0.8,5.3,2.5
			c1.4,1.7,2.1,4.5,2.1,8.3C1535.6,1209.4,1534.9,1212,1533.4,1213.7z"/>
		<rect x="1571.3" y="1213.7" class="st0" width="8.9" height="8.8"/>
		<path class="st0" d="M1745.8,1642.9c-0.3-4.1-0.7-8.2-0.6-12.3c0.4-12.6,1-25.1,1.6-37.7c0.3-7.1-1.9-10.2-9-12.3
			c-2-0.6-4.3-1.6-5.5-3.2c-3.9-4.8-9.3-5.7-14.8-5.9c-4.7-0.2-9.4,0.1-14,0.8c-5.9,0.9-10.2-1-13.7-5.6c-3.8-5-7.8-9.9-11.8-14.8
			c-8.9-10.8-17.9-21.5-26.8-32.3c-4.1-5-2.6-8.4,4.1-9.3c4.1-0.6,8.3-0.6,12.3-1.3c2.6-0.5,5.7-1.3,7.3-3.1
			c6.1-6.8,11-14.6,10.5-24.2c-0.2-4-1.6-8-2.6-11.9c-2.5-9.4-9.7-15.1-19.5-15.6c-2.7-0.1-5.5-0.2-8.2-0.1c-2.9,0.1-5.1-1.1-5.2-4
			c-0.1-3,1.7-4.9,5.2-5.1c5.5-0.3,10.9-0.9,16.4-1.3c5-0.3,8.6-2.7,12.3-6c6.1-5.4,8-12.3,8.6-19.8c1.3-17.8-6.3-40.1-31.4-42.6
			c-4.9-0.5-9.7-2-14.6-2.5c-4.9-0.4-7.8-2.5-8.2-7.4c-0.5-6.2-4.5-9.6-9.5-12.5c-8.6-5-14.2-3.1-18,6.3c-6,14.4-4.7,11.3-17.1,11.6
			c-0.3,0-0.6-0.1-0.8,0c-7.6,1.4-12.6-2.5-16.2-8.6c-3.9-6.6-10.2-8.7-17.2-9.4c-7.6,7-5.8,16.5-6.4,25.7c-4.2-3.5-4.8-5.1-4.3-9.3
			c0.5-5.4,1.1-10.8,1.4-16.2c0.5-8.7,0.8-17.4,1.1-26.2c0.1-4.1-1-7.9-5.1-9.4c-7.5-2.7-15-6.7-22.7-7.1c-22.5-1-45.1-1.8-66.9,6.1
			c-6.5,2.4-8.2,3.5-7.9,10.4c0.3,7.9,1.5,15.8,2,23.6c0.5,8.2-1.5,9.9-9.6,8.6c-2.2-0.4-4.2-1.2-6.4-1.6c-4.3-0.7-8.8-2.2-13-1.7
			c-12.8,1.6-25.3-1-37.8-2.4c-11.4-1.3-22.7-2.7-33.9-6.1c-10.9-3.3-22.7-3.9-34.2-5.7c-1.6-0.3-3.2-0.7-4.8-1.1
			c-7.6-2-15.2-4.6-23-6c-19.5-3.5-39.1-6.6-58.6-9.7c-12.3-1.9-24.5-3.5-36.8-5.1c-11.2-1.4-22.4-2.4-33.6-4
			c-24.3-3.4-48.5-7.1-72.7-10.7c-23.9-3.5-47.9-6.8-71.9-10.3c-7.6-1.1-15.2-2.7-22.9-3.4c-8.8-0.8-10.5,1-11.4,9.5
			c-0.7,5.8-1.7,6.9-7.4,8.2c-4.5,1-9,2.2-13.5,3.4c-4.5,1.2-9,2.7-13.6,3.7c-19.5,4.3-39.3,3.4-59,1.6c-16.7-1.6-33.4-3.1-50.2-4.4
			c-4.3-0.3-7.4-1.9-9.5-5.5c-1.4-2.4-2.7-4.8-3.7-7.3c-2.1-5.2-6.2-8.4-11-10.6c-4.1-1.9-8-1.7-12.3,1.4c-4.7,3.4-5.9,8.4-8.2,12.9
			c-2.5,4.8-4.8,9.9-8.1,14.1c-5.4,6.8-11.5,13-17.6,19.9c-0.1,0-1.1,0.1-1.6-0.4c-3-2.3-6.1-4.7-8.8-7.3
			c-13.9-13-39.3-7.8-45.4,9.8c-0.7,2-1.9,3.8-3.2,6.3c-8.4-0.5-16.6-0.8-24.8-1.5c-9.3-0.8-18.6-2.2-27.9-2.9c-8-0.6-16-0.6-23.9-1
			c-4.9-0.2-9.8,1-12.7,4.8c-6.8,9-9.2,18.2-3.3,30.7c3.2,6.7,8,10.9,15.8,11.4c11.8,0.7,23.6,1.7,35.4,2.3c7.7,0.4,9.4,2.2,6.4,8.9
			c-5.4,12.2-7.3,25.1-8.1,38.3c-0.6,8.7-1.8,9.6-10.5,9.6c-10.4,0-20.9,0.4-31.4,0.5c-4.9,0-8.5,1.7-10.4,6.5
			c-2.2,5.6-6.8,6.4-12.2,6.1c-5.3-0.3-7.7-3.6-9-8.2c-0.5-1.8-0.8-3.8-1.6-5.5c-3.5-7.9-9.3-13-18.1-13.7
			c-8.1-0.6-14.3,3.1-18.5,10.1c-8.5,13.9-7.9,28.2-0.5,42.1c4.8,9.1,22.7,11.6,29.1,4.3c4.1-4.6,8.7-9.2,9.3-16.1
			c0.4-3.9,3-5.6,6.9-5.6c2.2,0,4.4,0.1,6.6-0.2c4.4-0.5,7.5,1,9.2,5.2c1.9,5.2,6.1,6.7,11.2,6.6c3.6,0,7.2-0.3,10.7-0.1
			c1.7,0.1,3.4,0.8,5.6,1.4c-1.1,1.3-1.5,2.2-2.1,2.5c-13,4.4-25.5,9.8-38,15.3c-19.8,8.8-37.1,20.3-51,36.7
			c-10,11.9-18.3,25-20.3,40.6c-1.7,13.3-2.4,26.7-2.2,40.1c0.1,10,4.5,19.3,11.5,26.6c6.6,6.9,13.5,13.8,22.7,17.6
			c4.8,2,9.9,3.3,14.4,5.7c10.6,5.5,22.1,6.7,33.6,7.3c17.8,0.9,35.7,1.3,53.5-1.5c3.4-0.5,5.3,1.1,5.9,4.2c0.4,2.1,0.3,4.3,0.3,6.5
			c0.1,7.7,0,15.3,0.2,23c0.1,2,0.6,4.6,2,5.9c6.1,6.3,16.8,3.4,18.8-5c2.6-10.6,4.9-21.3,7.6-31.9c1.2-4.8,4.1-8.6,9.2-11.1
			c0.6,1.6,1.2,2.5,1.2,3.5c0.5,24.1,0.8,48.1,1.3,72.2c0.1,4.2-2.3,5.9-6,6.4c-10.6,1.6-21.2,3.3-31.8,4.9c-6.8,1-7.5,1.6-8.3,7
			c-0.9,6.1-0.2,7.8,5.3,10.4c2.5,1.2,5.2,1.6,7.8,2.4c3.7,1.1,7.4,2.2,11,3.5c5.9,2.1,11.7,4.6,17.7,6.5c8.4,2.6,17.6,3.5,25.2,7.6
			c12.3,6.6,25.8,9.4,38.5,14.3c12.8,4.9,25.8,9.4,38.8,13.8c19.7,6.7,38.3,16.5,59.1,20.2c5.6,1,11.1,3,16.4,5
			c16.1,6.2,32.3,12.4,48.2,19.1c11.2,4.7,22.7,3,34.2,3c3.1,0,5.9-0.3,8.6,1.1c3,1.4,5.9,3,9,4c9.8,3.3,19,9.1,30,7.5
			c6.8-1,13.5-2.6,20.1-4.1c7-1.6,13.9-3.4,20.9-5c2.1-0.5,4.3-0.7,6.5-1c8.4-1.4,16.9-2.4,25.1-4.4c15.5-3.7,30.8-8.2,46.3-12.1
			c12.8-3.2,25.7-5.9,38.5-9.1c9.3-2.3,18.5-5.4,27.8-7.8c17-4.4,34.2-8.2,51.2-12.7c16.2-4.3,32.1-9.5,48.3-13.8
			c19-5.1,38.2-9.7,57.3-14.5c20-5.1,40-10.2,59.9-15.4c9-2.3,18.1-4.7,27-7.4c12.6-3.8,25.1-8,37.7-11.7c3.6-1.1,7.6-1,11.3-2
			c16.2-4.1,32.4-8.5,48.6-12.7c4-1,7.9-2.3,11.9-3.1c18.9-3.8,37.9-6.7,56.3-12.6c12.8-4.1,25.7-7.9,38.7-11.3
			c14.3-3.8,28.8-6.8,43.1-10.6c11.4-3,22.6-6.7,33.9-10c6.4-1.8,11-4.7,11.1-12.2c0.1-5.3,2.1-9.5,7.6-11.5c4.1-1.5,4.4-4.5,2.5-8
			c-0.8-1.4-1.8-2.7-2.5-3.9C1745.4,1652.6,1746.3,1649.9,1745.8,1642.9z M1663.3,1435.7c-2.3-3.3-1.7-5.7,1.9-8.3
			c3.5,1.5,6.7,2.8,10.5,4.5C1671.9,1436.2,1667.3,1434.5,1663.3,1435.7z M1673.8,1394.6c-2.5,0.6-5,1.2-8,2
			c-1.4-3.1-2.7-5.9-4.1-8.8C1669.9,1386.3,1671.4,1387.2,1673.8,1394.6z M563.4,1442.7c2.7,12.5,0.3,16.5-9.3,14.7
			C555.2,1451.3,556.4,1445.5,563.4,1442.7z M566,1484.9c-10.5-0.2-14.8-8.4-10.6-20c2.7-0.3,5.6-0.6,9-0.9
			C567.2,1471.1,566,1478,566,1484.9z M569.7,1442.4c8.6-0.4,12.8,5,12,14.5c-9.7,1.6-9.8,1.5-11.1-6.8
			C570.2,1447.6,569.9,1445,569.7,1442.4z M578.2,1481.9c-0.6,1.4-3.4,1.8-6.9,3.5v-22.5c3.8,0.5,7.3,0.9,11.1,1.4
			C583,1471.1,580.4,1476.5,578.2,1481.9z M620.7,1471.4v-16.3C626.7,1461.7,626.7,1465.1,620.7,1471.4z M708.2,1763.8
			c-8-2.5-15.4-4.8-23.9-7.5c8.2-4.1,15.6-4.8,23.9-4.3V1763.8z M1721.9,1581.1c1,7.4,1.1,7.9-4.9,8.8c-6.7,1-13.6,0.9-21.3,1.4
			c-0.4-3.3-0.6-5.8-1-8.6C1704.8,1582.2,1713.4,1581.7,1721.9,1581.1z M1686.8,1586.7c0.8,2.9-1.5,5.8-4.1,5.7
			c-3.3-0.2-5-2.6-4.8-5.4c0.2-1.8,2.2-3.5,4.2-6.6C1684.3,1583.2,1686.1,1584.8,1686.8,1586.7z M1663.1,1548.7
			c2.9,3.6,6.5,6.6,9.7,9.9c2.7,2.9,5.2,6.1,8.6,10.1c-36.5,5-71.5,5.7-106.4,7.4c-6.2,0.3-9.9-1.5-13.6-6.7c-9-13-19-25.4-28.5-38
			c-1.2-1.5-2-3.2-3.5-5.5c2.1-0.8,3.7-2,5.3-2c30-0.2,60-0.2,89.9-0.3c4.1,0,8.3,0.2,12.4-0.2c5-0.4,8.3,1.8,11.1,5.6
			C1653.1,1535.8,1657.9,1542.4,1663.1,1548.7z M1491.4,1504.3c4.3,1.2,6.7-0.4,9-3.5c3.9-5.5,6.6-11.2,6.3-18.2
			c-0.3-6.5,0-13.1-0.1-19.7c-0.1-6.3-1-7-7.2-7.1c-5.2,0-10.4-0.1-15.7-0.1c-3.4,0-5.1-1.5-4.7-5c0.3-3.2,0.5-6.4,0.7-9.9
			c1.4-0.3,2.7-0.9,3.9-0.9c12.1-0.1,24.2-0.1,36.3,0c2.8,0,7-0.8,7.2,3.3c0.2,4.6-4.1,3.2-6.9,3.3c-7.8,0.2-8.2,1-8.1,8.5
			c0.3,12.5-0.1,25-0.1,37.6c0,3.1,0.4,6.2,0.6,9.1c5.6,0.8,10,1.4,15.4,2.2c-1.4,3.7-2.2,6.2-3.3,8.6c-1.8,3.9-4.7,5.8-9.2,5.1
			c-9.2-1.5-18.5-2.6-27.6-4.4c-3.6-0.7-6.9-2.8-10.9-4.5C1481.8,1503.7,1486.6,1502.9,1491.4,1504.3z M1480.1,1467.1
			c0.1-1.7,3-3.4,4.8-4.7c0.8-0.6,2.1-0.4,3.2-0.5c11.2-1.4,13.1,0.5,12.2,11.8c-0.3,3.2-0.2,6.5-0.2,9.8
			c-0.1,10.8-3.1,13.7-13.7,13.2c-1.9-0.1-3.8-0.2-6.4-0.4C1477.6,1486,1479.4,1476.5,1480.1,1467.1z M1484.1,1410.1
			c6.3-0.7,12.6-0.9,18.9-0.9c4.9,0,9.8,0.9,14.5,1.3c0.3,0.5,0.6,0.7,0.6,1c-0.1,5.7-11.5,19-16.9,19.7c-5,0.7-9.1,0-12-4.9
			c-2.1-3.5-5.2-6.4-7.6-9.6C1478.6,1412.9,1479.4,1410.5,1484.1,1410.1z M1583.3,1458.8c-5.7,0.1-11.1,0.1-16.7,2.9
			c-4,2-9.8,1.3-14.5,0.5c-4.2-0.7-5.1-4.3-3.9-8.3h46.5c0,0.8,0,1.6,0,2.5C1591.4,1459.2,1587.3,1458.7,1583.3,1458.8z
			 M1605.3,1464.6c3.7,0.1,5.4,2.3,5.4,5.9c0,7.1,0,14.2,0,22.1c-2.3,0.4-3.7,0.7-5,0.8c-8.3,0-16.5-0.2-24.8,0
			c-4.3,0.1-7.1-1.6-7.5-5.8c-0.6-5.7-0.7-11.5-0.8-17.2c-0.1-4,2.2-6.1,6.2-6.1C1587.6,1464.3,1596.4,1464.4,1605.3,1464.6z
			 M1547.6,1483.1c-0.2,3.4-3.3,6.6-4.8,10c-2,4.4-6,2.9-9.4,3.2c-15.1,1.3-15.2,1.3-15.4-13.8c0-3,0-6,0-9h-0.4
			c0-4.7-0.1-9.3,0-13.9c0.1-5.8,1.9-7.8,7.7-8.4c2.7-0.3,5.5,0,8.3-0.1c7.6-0.1,7.5-0.1,9,7.7c0.2,1.3,0.5,2.9,1.3,3.8
			C1549.4,1468.8,1548.1,1476.2,1547.6,1483.1z M1477.6,1528.9c0.8-3.3,1.5-6.1,2.4-9.6c7.1,0.9,13.9,1.7,20.6,2.6
			c4,0.6,8,1.5,12.1,2.1c4.5,0.6,8.3,2.2,11.1,6.1c9,12.4,18.3,24.5,27.3,36.9c1.4,1.9,2.4,4.1,4.3,7.4c-3.2,0.2-4.9,0.5-6.4,0.4
			c-30.7-2.4-61.4-4.9-92.1-7.4c-2.5-0.2-4.9-0.8-7.3-1c-3.6-0.4-5.7-2.7-5.7-5.9c-0.3-10.3-0.1-20.6-0.1-31.6H1477.6z
			 M1482.6,1632.8c18.7-2.7,36.2-5.3,54.2-8c1.3,4.6,0.3,8.2-1.3,11.7c-4.9,10.6-10,21.2-14.7,31.8c-1,2.2-0.9,4.8-1.4,7.2
			c-0.8,4.2-3.4,6.5-7.6,7.4c-9.1,1.9-18.2,4-27.3,5.9c-4.5,1-9.1,2.1-13.9,0C1474.6,1670,1478.6,1651.2,1482.6,1632.8z
			 M1469.4,1656.2c-0.8-0.2-1.6-0.4-2.4-0.6v-36.5c7,6.1,9.8,12.2,7.1,20.5C1472.3,1645,1470.9,1650.6,1469.4,1656.2z
			 M1515.8,1620.5c-7.6,1-15.2,1.5-22.8,2.6c-6.8,1-13.1,1.5-16.8-6.1c-1.6-3.2-6.9-4-5.9-9.9c3.8-0.1,5.9,0.5,6.7,4.4
			c1.5,6.6,4,8.1,10.5,7.3c12.8-1.5,25.5-3.1,38.2-5c2.4-0.4,4.6-2.5,7.6-4.3c1,1.8,2.3,3.9,4.3,7.3
			C1529.4,1618.2,1522.6,1619.6,1515.8,1620.5z M1461.4,1597.3c0.6-0.6,2.1-0.6,3.2-0.6c12-0.8,24.1-1.6,36.1-2.3
			c1-0.1,1.9,0.2,3,1.7c-14.7,2-29.4,4.1-45.9,6.3C1459.3,1600.2,1460.1,1598.5,1461.4,1597.3z M1486.9,1696.3
			c8.7-2.3,17.6-3.6,26.5-4.8c6.9-0.9,10.9-4.8,12.9-10.9c1.2-3.6,2.1-7.3,3.3-10.9c1-2.7,2.2-5.3,3.2-7.9c0.6,0.1,1.2,0.2,1.8,0.3
			c0,4.4-0.4,8.9,0.1,13.3s1.9,8.8,3,13.6c-1.7,0.6-3.6,1.4-5.7,1.9c-13.9,3-27.8,6-41.8,8.9c-2.6,0.6-5.4,0.6-8.1,1.1
			c-6.7,1.2-13.3,2.6-20.9,4.1c-0.3-1.1-0.7-2.9-1.5-5.8C1469.9,1701.9,1478.3,1698.6,1486.9,1696.3z M1526.9,1591.1
			c16.2-0.3,31.2-0.4,46.1-0.9c9-0.3,18.1-1.3,27.1-2c18.5-1.5,37-3,55.6-4.5c3.9-0.3,7.8-0.8,11.7-1.3l0.4,1.7
			c-1.3,0.6-2.6,1.6-4,1.8c-21,2.1-42.1,3.9-63.2,6c-18.6,1.9-37.1,4.1-55.6,6.1C1536.1,1598.9,1535.8,1598.7,1526.9,1591.1z
			 M1659.4,1461.6c3.6,0.2,6.2,2.2,6.3,6.3c0,7.9,0.5,15.8-0.2,23.7c-1,11.1-1.9,11.4-14.5,9.8c-0.6-2.7-1.7-5.1-1.7-7.4
			c-0.2-10.1-0.1-20.1-0.1-31.1C1652.6,1462.4,1655.9,1461.5,1659.4,1461.6z M1645.1,1386.8c7.8,6.2,12,14.3,11.7,24.2
			c-0.2,7.4-1.9,14.6-6,21.3c0-5.3-0.3-10.6,0.1-15.9c0.7-9.9-3.4-17.5-10.7-23.7c-1.7-1.4-3.6-2.5-5.4-3.7
			C1640.1,1383.7,1640.9,1383.5,1645.1,1386.8z M1638.6,1435.2c1.3,0.2,3,2.3,3.2,3.7c0.3,2.6-1.1,5.3-4,5c-1.8-0.2-3.3-2.5-4.1-3.1
			C1633.6,1435.7,1635.9,1434.7,1638.6,1435.2z M1633.4,1421.7c0.4-0.5,0.6-0.9,0.7-0.9c4.9-0.6,7.5,0.6,7.4,3.6
			c0,1-1.3,2.7-2.1,2.8C1635.3,1427.6,1633.6,1425.3,1633.4,1421.7z M1635.4,1406.3c1.3,1.2,2.2,2,3.1,2.7c-1,0.9-1.9,2.2-3.1,2.5
			c-0.7,0.2-2.4-1.3-2.5-2.2C1632.9,1408.6,1634.3,1407.6,1635.4,1406.3z M1632.6,1456.1c0.2-3,2.1-4.9,4.8-4.3
			c1.6,0.3,3.7,2.7,3.9,4.2c0.7,8.2,0.9,16.4,1,24.6c0.1,4.8-0.4,9.6-0.7,15.8c-2.9-2.4-4.4-3.9-6.1-5c-4.8-2.9-8.7-1-9.6,4.3
			c0,0.3,0,0.6,0,0.8c-1.5,12.9,2.3,16.2,15,12.2v8.1c-6.1,0-11.6-0.1-17,0c-27.5,0.5-55,1.1-82.5,1.6c-1.1,0-2.3,0.2-3.3,0
			c-2.5-0.6-6.1-0.7-7.2-2.4c-2-2.9,0-6.1,2-8.9c3.3-4.5,8.2-5.1,13.3-5.4c0.8-1.6,1.6-3,2.1-4.5c1.6-4.5,3.2-8.3,9.2-9
			c5.8-0.7,9.8,0.9,12.2,6c1.8,3.7,5,5.1,8.6,5.3c5.2,0.4,10.5,0.4,15.7,0.3s10.4-0.6,15.6-0.8c5.6-0.2,7.3-1.1,7.5-6.4
			c0.3-10.9,0.1-21.7,0.1-32.2c-4.9-3.9-11.6,0.8-15.5-3.8c3.2-3.2,6.1-6.1,9.2-9.2c4.1,0.9,9,1.9,14.8,3.1
			c0.2,5.4,0.5,11.2,0.8,17.9c4.4-1.6,6.1-3.9,6.2-7.4C1632.6,1459.4,1632.4,1457.7,1632.6,1456.1z M1632.8,1505.8
			c-5-4.9-4.7-6.1,1.7-8.8C1636.8,1500.2,1635.6,1502.9,1632.8,1505.8z M1625.1,1423.6c-0.4,1.5-1.9,2.6-2.6,3.5
			c-3.6-0.4-5.7-3.3-4.8-6.2c0.4-1.2,2-2.6,3.2-2.7C1623.8,1417.7,1625.9,1420.6,1625.1,1423.6z M1625.3,1442.5
			c-4.4,1.1-6.5,0-6.5-4.2c0-2.9,2-4.1,4.3-3.6C1627.4,1435.8,1626.1,1439.1,1625.3,1442.5z M1620.6,1411.1
			c-1.7-1.3-3.4-2.6-5.1-3.9c3.4-1,6.2-1.1,6.6,1.9C1621.6,1409.8,1621.1,1410.5,1620.6,1411.1z M1629.9,1399.7
			c-4.5-0.6-9-1.3-13.5-1.8c-2.7-0.3-5.4-0.6-8.1-0.5c-4.9,0.2-5,0.3-5.6-6.4c8.6-1.2,16.6,2.8,24.9,3.3c1.4,0.1,2.7,1.5,4.1,2.3
			C1631.1,1397.6,1630.4,1398.6,1629.9,1399.7z M1616.9,1364c2.6-5.6,6.7-6.1,10.7-1.4c2.8,3.3,4.1,9.8,2.8,14.6
			c-4.9-2.2-9.8-4.4-15.5-6.9C1615.8,1367.6,1616.1,1365.7,1616.9,1364z M1618.8,1384c-8.7-1.2-17.5-2.3-26.2-3.5
			C1608.1,1377.6,1614.4,1378.3,1618.8,1384z M1561.1,1365.4c0.7-2.9,2.9-3.9,5.7-2.8c2.9,1.2,3.5,3.9,1.9,6.1
			c-1.4,1.9-4.1,3-7.7,5.4C1561.1,1369.6,1560.6,1367.4,1561.1,1365.4z M1556.1,1387.5c11,0.7,22,1.2,32.9,2
			c1.8,0.1,4.5,1.6,5.1,3.1c2.7,7.3,5.8,14.7,7,22.4c1.4,9.1,1.2,18.4,1.4,27.6c0.1,4.1-2.8,4.9-6.1,4.8c-6.8-0.3-13.7-0.9-20.5-1
			c-11-0.1-22,0.4-33,0.2c-8.1-0.1-8.2-0.3-10.1-8.1c-0.8-3.4-3.1-4.3-5.9-4.6c-4-0.5-8-0.9-12.8-1.4c3-9.5,9.6-15.1,16.2-21.4
			c2.3,2.9,0.9,5.9,1,8.7c0.2,6.9-0.1,14,7.2,18c2.6,1.4,5.4,2.7,8.2,3.3c3.2,0.7,6.7,0.1,9.8,0.8c5.1,1.2,8.6-0.9,11.6-4.4
			c6.2-7.1,6.8-15.6,4.1-23.9c-2.1-6.7-7.6-10.5-15.1-10.7c-6.6-0.1-13.1,0-21.7,0c3.2-4.1,6.4-7.3,8.6-11.1
			C1546.9,1386.7,1551.3,1387.2,1556.1,1387.5z M1540.6,1412.9c1.5-1.6,4.2-2.8,6.3-2.7c1.5,0.1,3.3,2.6,4,4.4
			c1.2,3.3,1.6,6.8,2.4,11.1c-0.9,1.9-1.8,4.5-3.3,6.6c-2.5,3.3-5.3,3.3-8.3,0.5C1536.4,1427.9,1535.8,1418.1,1540.6,1412.9z
			 M1542.4,1378c-0.2,2.4-0.8,5-2,6.9c-4,6.2-8.4,12.1-12.7,18.4c-10,0-19.3-0.1-28.7,0c-7.1,0-14.2,0.1-21.4,0.4
			c-4.1,0.2-7.4-0.5-10-4.1c-2.8-4.1-6.7-7.4-8.8-11.8c-1.8-3.7-2.2-8.3-2.3-12.5c0-3.6,3.5-3.7,6.2-3.9c14.3-0.8,28.5-1.9,42.8-2.3
			c9.9-0.3,19.8,0.2,29.7,0.7C1541.4,1370.1,1543.1,1372,1542.4,1378z M1456.9,1341.5c0.3-4.3,1.1-8.5,1.1-12.7
			c0-4.1,2.3-6.1,5.8-6.8c5.4-1.1,10.8-2.5,16.2-2.5c17,0.1,34,0.8,51.1,1.5c3.2,0.1,6.4,1.3,10.7,2.3c-1.4,13.9,1.7,26.8-0.4,39.7
			c-16.8-0.4-32.7-1.1-48.6-0.9c-9.3,0.1-18.6,1.4-27.8,2.6c-7,1-8.5,0.3-8.7-6.8C1455.9,1352.4,1456.4,1347,1456.9,1341.5z
			 M1421.6,1366.6c0.9-4,3.4-4.3,6.8-3.6c4.6,0.9,9.2,1.7,13.7,2.3c6,0.8,8.2,2.5,7.9,8.2c-0.4,9.5,2.3,17.7,7.8,25.2
			c1,1.4,1.3,3.5,2.2,6.1c-5.5,0.3-9.8,0.5-14.7,0.7c-0.2-2.7-0.3-5.1-0.5-7.4c-0.3-3.5-0.4-7.1-1.1-10.5c-2-9.7-2.9-10.4-12.8-11.6
			c-1.6-0.2-3.3-0.2-4.9-0.5C1421.9,1374.6,1420.6,1371.3,1421.6,1366.6z M1422.4,1582c0.3-3.8,0.2-7.7,0.9-11.4
			c0.8-4.3,3.1-5.5,7.8-5.5c4.1,0,6.2,2.1,6.2,6c0,6.5,0.2,13-0.4,19.5c-0.5,4.5-6.5,7.8-10.8,6.1c-1.4-0.5-2.8-2.6-3-4.2
			c-0.5-3.5-0.2-7.1-0.2-10.6L1422.4,1582L1422.4,1582z M1416.4,1560.5c-14.8,1.4-29.5,3.4-44.3,3.6c-13.8,0.2-27.3,1.9-40.9,3.8
			c-5.4,0.8-11,0.5-16.5,0.2c-3.9-0.2-3.9-0.6-3.2-6.4c37.3-2,74.4-5.9,112.9-7.1C1422.6,1560.4,1419.1,1560.3,1416.4,1560.5z
			 M1414.6,1596c-14.4-0.8-28.3-1.4-42.3-2.2c-3.3-0.2-6.5-1-9.8-1c-3.8,0-5.8-2-6-5.4c-0.3-5.1,0.2-10.2,0.3-15.6
			c19.9-4.9,38.7-1,57.9-4C1416.9,1577.2,1417.8,1586,1414.6,1596z M1350.3,1576c-0.1,9.2-0.7,18.5-1.7,27.6c-0.2,1.6-3.4,3.5-5.5,4
			c-6.9,1.6-13.9,2.6-20.9,3.8c-11.4-0.3-11.4-0.3-11.8-11.2c-0.2-5.5-0.6-10.9-0.6-16.4c-0.1-6.3,2.4-8.9,8.6-9.6
			c8.7-1,17.4-1.8,26.1-2.7C1347.9,1571.2,1350.3,1573.4,1350.3,1576z M1388.1,1445.7c-1.7,0.9-3.8,1.8-4.7,3.2
			c-2.9,4.8-7,4.6-11.9,4.4c-4.7-0.2-6.4-2.4-7-6.2c-0.4-2.1-0.3-4.3-0.3-6.5c0.1-3.4-1.2-8.1,3.2-9.1c4-0.9,9.8-1.2,12.4,1
			c4.1,3.5,8.3,4.8,13.1,5.7c1,0.2,1.8,1.1,4.3,2.6C1393.1,1443.1,1390.6,1444.3,1388.1,1445.7z M1397.9,1450.8c0,3.5,0.1,6.5,0,9.5
			c0,0.7-0.7,1.4-1.1,2.1c-5.3-0.8-8.9-4.2-8.3-7.8C1389.1,1451.2,1392.1,1449.9,1397.9,1450.8z M1393.6,1431.2
			c-4.4,0.7-7.9-0.9-9.2-4.7c-1.4-4.1,2-6.2,5.8-8C1394.6,1422.2,1394.6,1426.4,1393.6,1431.2z M1376.6,1422.4
			c-2.4,1.7-6.2,2.2-9.2,1.8c-3.2-0.4-3.4-3.7-3.6-6.6c-0.6-8.6,0.1-9.4,8.8-9.1c8.8,0.3,8.8,0.3,14.7,3.2
			C1383.6,1415.7,1380.6,1419.7,1376.6,1422.4z M1366.3,1540.4c8.8,0,17.5-0.2,26.3-0.3c5.4,0,9.5,1.9,11.3,8.7
			c-15.6,1.1-30.7,2.2-46.4,3.3C1356.8,1541,1357.4,1540.4,1366.3,1540.4z M1364.4,1529.1c-0.1-3,2.7-3.7,5.4-3.3
			c1.9,0.2,4,0.2,5.6,1.1c1.7,1,2.9,2.8,4.3,4.3c-1.5,1.4-3,2.9-4.6,4.1c-0.6,0.4-1.6,0.3-2.7,0.4c-1.3-0.2-3.4,0-4.4-1
			C1366.4,1533.2,1364.6,1531,1364.4,1529.1z M1386.3,1519.2c1.1-1.2,3.4-1.9,5.1-1.7c0.9,0.1,2.1,2.3,2.3,3.7
			c0.4,2.1,0.1,4.4-0.1,6.5c-0.1,1.3-0.6,2.5-1.1,4.5C1384.3,1529,1381.9,1523.6,1386.3,1519.2z M1399.6,1532.8
			c0.4-6.3,0.9-12.8,1.3-18.9c-8.6-3.8-13.7-3.1-19.2,2.2c-4.2,4.1-9.5,5.7-13.3,3.7c-4.7-2.5-4.8-6.9-4.4-11.4c0.1-1.1,0-2.2,0-3.3
			c0-8.8,2.3-10.9,10.9-9c3.5,0.8,7.1,2.9,9.9,5.4c4.3,3.9,9.3,4.3,14.6,4.4c2.9,0.1,4.9-1.6,4.9-4.4c0-7.5-0.4-15.1-0.7-23.2
			c-9.1,1.7-17.7,1.3-23,10.1c-2.7,4.6-8.1,2.1-12.3,1.7c-4.1-0.4-3.5-4.3-3.6-7.2c-0.3-6-0.7-12-0.4-18c0.2-5.1,1.4-5.6,6.8-6
			c5.5-0.4,9.6,0.9,13.7,5.3c3,3.3,8.3,5,12.9,6.3c3.9,1.1,6.4-1.2,6.3-5.3c-0.2-8,1.6-16.2-2.8-24c-1.4-2.5,0-6.4-0.1-9.6
			c-0.2-6-0.5-12-0.8-17.7c9.1-7.8,10.1-9.4,13.9-20.8c1.8,6,2.3,147.3,0,154.7C1408.9,1542.3,1404.3,1537.5,1399.6,1532.8z
			 M1388.4,1491.4c1-1.8,3.5-3.3,5.6-3.5c1-0.1,2.9,2.8,3.4,4.5c0.5,1.9-0.3,4.1-0.6,7.2c-3-1-5.6-1.3-7.2-2.7
			C1388.4,1495.8,1387.6,1492.7,1388.4,1491.4z M1400.4,1403.4c-1.3,0.3-2.7,0.4-4.1,0.3c-10.2-0.5-20.3-1-30.4-1.8
			c-6.6-0.5-9.4-3.4-9.8-9.8c-0.1-3.1,0.3-6.2,0.6-10c10.3,1.3,19.5,2.3,28.7,3.5c4.9,0.7,9.6,2,14.5,2.6c3.6,0.5,6.4,1.5,6.7,5.7
			C1406.9,1398.6,1404.6,1402.3,1400.4,1403.4z M1425.1,1451.3c0.1,8.2,0.5,16.4,0.5,24.6c0,7.9-0.4,15.8-0.5,23.7
			c-0.1,8.2,0.3,16.4-0.1,24.6c-0.4,7.8,2.1,15.8-0.5,23.5c-0.7,0-1.5,0-2.2-0.1c0-19.9-0.2-39.9,0-59.8c0.3-20.1,1-40.3,2.7-60.4
			C1425.1,1435.4,1424.9,1443.4,1425.1,1451.3z M1424.4,1414.3c-0.9-4.4-2.5-10.6-3.5-16.8c-0.2-1.3,1.4-2.9,3.5-4.1V1414.3z
			 M1437.1,1547.3c0,3.4-0.7,6.7-1,10.1c-0.7,0-1.4,0-2.1,0.1c-0.8-4.5-2.2-9-2.2-13.5c-0.2-51.1-0.1-102.2-0.1-153.3
			c0-2.1,0.3-4.3,0.4-6.4c0.8-0.3,1.5-0.6,2.2-0.9c0.9,1.6,2.3,3.1,2.7,4.9c0.5,2.4,0.2,4.9,0.2,7.4
			C1437.1,1446.1,1437.1,1496.7,1437.1,1547.3z M1435.4,1644.9c0.6,0,1.2,0.1,1.8,0.1c0.4,16,0.9,32.1,1.1,48.2
			c0.1,7.9-0.1,15.8-0.2,23.8c-0.1,5.9-1.8,7.3-7.6,6.2c-11-2-22-3.9-32.9-6.2c-2.1-0.4-4-2.3-6.8-4
			C1406.1,1689.8,1420.8,1667.3,1435.4,1644.9z M1423.9,1384c-2.3,0.6-3.8,1.6-5,1.3c-10.7-2.1-21.3-4.5-32-6.5
			c-5.3-1-10.9-0.8-16.3-1.7c-3.9-0.6-7.6-2.1-11.4-3.2c0.2-0.7,0.4-1.4,0.5-2c5.1,0.7,10.4,0.7,15.2,2.2
			c11.1,3.4,22.4,4.3,33.9,4.9C1413.9,1379.3,1419.1,1379.4,1423.9,1384z M1378.1,1360.8c10.3,1.2,20.7,2.4,31,3.5
			c4.7,0.5,5.3,1.5,3.8,8.2c-1.2,0-2.6,0.2-3.9,0c-15.4-2.5-30.8-5.2-46.2-7.6c-4.1-0.6-7.4-1.6-7.6-7.1
			C1363.1,1358.8,1370.6,1359.9,1378.1,1360.8z M1348.8,1372.4c-10.7,0.4-20.8-1.4-30.8-3.3c-2.2-0.4-4.3-1.6-6.4-2.4
			c0.2-0.9,0.3-1.8,0.4-2.8c3.6,0,7.3-0.4,10.9,0.1c6.7,1,13.3,2.5,20,3.8C1345.1,1368.3,1347.8,1368.3,1348.8,1372.4z
			 M1313.1,1349.6c5.7,0.2,11.5,0.8,17.2,1.5c3.5,0.4,7,1.2,10.4,2c3.8,0.8,6.8,2.4,6.1,8.1c-2.3-0.1-4.2,0-6-0.3
			c-8.6-1.4-17.2-2.9-25.8-4.4c-0.8-0.1-1.9,0-2.4-0.4c-1.1-1-2.6-2.4-2.5-3.5C1310.3,1351.4,1312.1,1349.5,1313.1,1349.6z
			 M1309.4,1375.2c4.4,0,7.6-0.4,10.8,0.1c7.1,0.9,14.1,2.2,21.2,3.4c7.5,1.2,8.6,2.3,8.7,10.1c0.1,6.5-0.2,13.1-0.2,19.6
			c0,12.8,0.1,25.7,0.2,38.5c0.1,33.4,0.2,66.7,0.3,100c0,1.4-0.2,2.7-0.4,5c-2.5,0.5-5,1.3-7.6,1.6c-7.9,0.8-15.9,1.6-23.8,1.9
			c-8.1,0.2-8.9-0.7-9-9c-0.1-18.9-0.1-37.7-0.1-56.6c0-35-0.1-70-0.1-105V1375.2z M1348.1,1614.7c13.9-4.1,28.6-5,43.2-6
			c14.4-1,28.5-4.2,43-4.8c0.4,3.7-1,4.8-3.6,5.1c-15,1.6-30,3.1-45,5c-17.5,2.2-34.9,4.7-52.3,7c-9,1.2-17.8,4-28.7,2.1
			C1319.4,1616.4,1334.4,1618.7,1348.1,1614.7z M1002.2,1300.2c8.6,1.6,17.3,3.2,26,4.9c24.3,4.9,49.1,6.6,73.7,9.8
			c9,1.2,18.1,2.1,26.8,4.6c14.5,4.1,29.5,3.5,44.1,6.1c20.4,3.5,40.8,6.6,61.2,9.6c8.4,1.2,17,1.6,25.5,2.8
			c11.4,1.6,22.8,3.3,34.2,5.4c6,1.1,7.4,3.8,7.5,9.8c0.3,17.5,1,35,1.2,52.5c0.3,18.9,0.4,37.7,0.5,56.6c0,20.5-0.3,41-0.2,61.6
			c0.1,12,1.1,24,1.1,36.1c0,16.4-0.7,32.8-0.8,49.2c0,4.1-2.1,6-5.8,6.5c-11.4,1.6-22.9,3.3-34.3,4.8c-14.7,1.9-29.5,3.6-44.2,5.5
			c-16.4,2.1-32.7,4.4-49.1,6.4c-21.8,2.7-43.7,5.3-65.6,8c-21.6,2.7-43.2,5.3-64.7,8.1c-10.1,1.3-20.1,2.9-30.2,4.2
			c-3.4,0.4-6.9,0.1-11.5,0.1c0-16.8,0.1-31.8,0-46.9c-0.2-27.6-0.7-55.2-0.8-82.8c-0.1-29,0.3-58,0.2-87c0-15-0.8-30.1-1.1-45.1
			c-0.1-5.2,0.6-10.4,0.5-15.5c-0.5-21.3-1.1-42.6-1.7-63.9c0-1.6,0.2-3.3,0-4.9C993.9,1300.7,997.4,1299.4,1002.2,1300.2z
			 M1294.3,1662.2c2.2-1,5-0.7,8.9-1.1c-1.2,3.8-1.4,6.6-2.8,8.5c-1,1.4-3.8,2.5-5.3,2.1s-3.2-2.8-3.3-4.5
			C1291.6,1665.6,1292.9,1662.9,1294.3,1662.2z M1291.9,1648.9c0-3.6,3-4.9,6.1-5.2c1.5-0.1,3.1,1,4.2,1.4c0.2,3.7-3.4,7.2-6.6,6.7
			C1294.3,1651.7,1291.9,1650,1291.9,1648.9z M1024.1,1668.4c3.4-0.7,7.2,0,10.7-0.4c5.4-0.5,10.9-1.2,16.2-2.2
			c3.5-0.6,6.8-2,10.3,1.6c-1.7,0.9-3,2.1-4.4,2.2c-10.9,1.3-21.8,2.2-32.7,3.6c-8.1,1.1-16.2,2.9-24.3,4
			c-5.1,0.7-10.4,0.8-15.6,0.7c-1.9,0-3.8-1.2-6.8-2.3c2.1-0.8,2.8-1.3,3.5-1.4C995.5,1673.4,1009.9,1671.4,1024.1,1668.4z
			 M873,1600.6c-13.5,0.6-27,0.8-40.5,1c-1.3,0-2.7-0.3-5.6-0.7c3.7-10.3,3.2-19.6-1.7-28.5c1.7-1,2.6-1.8,3.6-1.9
			c9.6-0.9,19.1-1.8,28.7-2.4c10.2-0.6,20.4-1.2,30.6-1.4c8.5-0.2,17.1,0.9,25.6,0.3c12.6-0.9,25.1-2.5,37.7-2.1
			c6.3,0.2,8.4,0.8,9.6,6.4c1.7,7.6,1.4,15.2-3.1,22.1c-1.7,2.6-3.8,4.2-7.5,3.9c-5.4-0.5-10.9-0.3-16.3,0
			C913.7,1598.3,893.4,1599.7,873,1600.6z M901.7,1642c-4.6-0.5-9.2-0.7-13.6-1.5c-3.5-0.6-3.9-2.5-2.4-7.3
			C900.9,1634.4,901.2,1634.6,901.7,1642z M731.9,1591.5c-0.8-3.4,1.2-6.7,4.7-7.4c1.7-0.3,3.6,0.3,5.8,0.5c0.2,2.3,0.4,4.2,0.3,6
			c-0.2,3.7-2.3,6.3-6.1,6.6C732.9,1597.4,732.5,1594,731.9,1591.5z M733.2,1612.1c-8.3,3.1-13.7-1-21.1-1.4
			c1.8-2.3,2.8-4.4,3.5-4.3C721.2,1606.9,726.9,1607.4,733.2,1612.1z M684.7,1579.5c-8,0.3-15.9,1.1-23.9,1.7
			c-7.3,0.5-8.5-0.7-8.7-8.2c-0.2-6.4-0.5-12.9-0.7-20.1c1.1-0.4,2.7-1.4,4.5-1.6c5.7-0.6,11.5-1.1,17.2-1.4
			c20.6-1.2,41.2-2.3,61.8-3.3c8-0.4,16-0.2,24-0.1c5.7,0.1,8.2,2.2,8.9,7.6c0.5,3.8,0.6,7.7,0,11.5c-1,7.2-6.3,11.2-13.9,11.4
			C730.7,1577.8,707.7,1578.6,684.7,1579.5z M630.2,1559.2c0.8-3.3,2.1-6.3,6.2-6.6c3-0.2,8,3.2,8.7,6.4c0.9,4.2,1.2,8.6,1.4,12.9
			c0,1.8-0.8,3.7-1.9,5.3c-3.7,5.6-10.8,5.4-13.7-0.6c-1.4-2.8-1.6-6.2-2.3-8.9C629.2,1564.5,629.7,1561.9,630.2,1559.2z
			 M600.7,1561.1c9.3-21.9,41.8-51.4,61.2-55.3C642.7,1527.2,620.4,1542.7,600.7,1561.1z M640.7,1543.5c7.4-6.9,13.4-12.5,20.2-18.8
			c0.7,5.7,1.3,10.8,2,16.5C656.4,1544.5,649.5,1543,640.7,1543.5z M687.9,1446.2c4.7-6.8,9.3-6.8,13.5-0.4
			c5.7,8.7,6.5,28.5-1.7,36.3c-5.1,4.8-10.2,4.5-15.7-2.9c8.6-0.6,15.3-1.8,15.9-11.4C700.7,1454,700.2,1452.6,687.9,1446.2z
			 M685.2,1496.5c1.3-1.6,4.3-2.1,6.7-2.7c3.2-0.8,6.5-1,9.8-1.6c6.4-1.1,13.2-1.2,17.2-7.8c0.4-0.6,2-0.6,4.3-1.2
			c0.4,3.6,1.1,6.2,1.1,8.9c0.1,13.9,0.2,27.8,0.1,41.8c0,6.7-1.2,7.4-7.8,7.4c-10.4,0.1-20.9,0.7-31.3,0.8c-8.3,0-9-0.7-11.4-8.8
			c-2-6.7-2.5-13.9,0.1-20.1C676.7,1507.2,681,1501.8,685.2,1496.5z M736.7,1526.5c0,4.3,0,8.5,0,12.5c-3.3,1.5-5.1,1-5.8-1.8
			c-0.4-1.6-0.7-3.2-0.7-4.8c-0.1-12.5-0.1-25,0-37.5c0-2.9,0.8-5.8,1.3-9.1c5.5-0.2,4.8,3.1,4.8,5.7
			C736.5,1503.1,736.7,1514.8,736.7,1526.5z M742.7,1491.6c0-3.5,0.6-6.6,5.2-6.8c4.5-0.2,7.5,1.9,8.4,6c0.1,0.5,0.2,1.1,0.2,1.6
			c0,8.9,0,17.9,0,27.1c-5,1.3-8.6,2.3-12.9,3.4c-0.3-1.8-0.9-3.5-0.9-5.2C742.7,1509,742.7,1500.3,742.7,1491.6z M750.2,1584.3
			c2.6-0.3,5.5-1.2,8.2-0.8c3.2,0.4,6.4,1.7,9.3,3c9.8,4.3,14.3,2.9,18.1-6.9c4.6-12,3.4-24.3-0.4-36.2c-2.6-8.1-8.2-10-16.3-7
			c-2.5,0.9-5.1,2.1-7.8,2.6c-8.9,1.4-13.9-0.4-11.1-11.7c2,0,4.6-0.6,6.7,0.1c10.2,3.2,20.7,1.7,31.1,2.8c8.2,0.9,9.2,0.9,9.4,9
			c0.4,17.2,0.5,34.5,0.4,51.7c0,7-1.4,7.8-8.7,6.7c-6.8-1-13.6-2.5-20.4-3.1c-5.7-0.5-11.4-0.1-18.4-0.1v-10.1H750.2z
			 M772.7,1548.7c-0.8-2.6-2.9-5.4,0.8-7c3.9-1.8,5.5,1.6,6.3,4.5c1.4,5,2.2,10.1,3.3,15.2c-1.2,5.5-2,11-3.7,16.1
			c-0.6,1.9-3.3,3.6-5.5,4.3c-2.4,0.7-3.9-2.7-3.1-6c1.4-5.8,2.9-11.6,3.6-17.5C774.7,1555.1,773.7,1551.8,772.7,1548.7z
			 M796.7,1524.3c-2.2,0.1-4.4-0.2-6.6-0.5c-7.1-0.8-14.1-1.8-21.2-2.4c-3.4-0.3-6-1.4-6-5.2c-0.1-9.8,0-19.6,0-29.9
			c2.1-0.6,3.1-1.1,4.1-1.1c9.4-0.1,18.7-0.2,28.1-0.1c5.4,0.1,6.6,1.1,6.9,6.1c0.5,9,0.6,18,0.9,27
			C802.9,1522.4,800.4,1524.2,796.7,1524.3z M766.4,1478.5c-14.2-0.3-28.5-0.6-44-0.9c0.4-7,0.8-13,1.1-18.9c0.2-4.7,2.7-6,7-5.8
			c15.9,0.5,31.9,0.9,47.8,1.2c16.8,0.3,33.5,0.5,50.2,0.7c7.7,0.1,15.4,0,23,0c1.4,0,2.8-0.1,4.1,0c11,0.6,14.7,5.1,13.1,15.9
			c-1.1,7.2-4.1,9.7-11.7,9.6C826.9,1479.6,796.5,1479.1,766.4,1478.5z M756,1446.3c-4.4,0.3-8.3,0.6-12.3,0.9v-37
			c1-0.5,1.4-0.8,1.5-0.8c3.6,1.6,8.4,2.5,10.3,5.2c1.8,2.7,0.5,7.4,0.5,11.2C756,1432.4,756,1438.8,756,1446.3z M755.9,1394.6
			c-9-0.2-18-0.9-27-1.6c-3-0.2-5.4-1.6-5.1-5.1c0.2-3,2.8-2.9,5-3s4.4,0,5.6,0c8.1,0.4,15.1,0.7,22.2,1.3c2.9,0.2,4.8,2.3,4,5
			C759.9,1392.7,757.4,1394.7,755.9,1394.6z M736.5,1437.4c0,2.7,0,5.3,0,8.1c-5,0.7-5.2-2-5.2-4.9c0-8.5,0-17,0-25.4v-14.5
			c5.7,0.6,5.1,3.8,5.1,6.3C736.5,1417.2,736.4,1427.3,736.5,1437.4z M832,1415c1.6-1.4,4.3-1.9,6.6-2.2c4.3-0.6,8.6-0.8,13.3-1.2
			c0.3-3.9,0.4-6.8,0.8-9.8c0.4-3.1,2.1-4.5,5.5-4.9c9.6-0.9,18.4,1.8,25.7,7.1c10.8,7.8,19.7,17.5,23.5,30.7
			c2.1,7.1,2.1,7.4-4.1,11.9c-3,2.1-2.9,5-3,8c-0.1,10.9,0,21.9-0.2,32.8c-0.1,5.7-0.8,11.4-1.2,17.6c-3.8-0.6-6.9-1.6-10-1.5
			c-3,0.1-5.9,1.4-8.8,1.8c-3.1,0.4-4.8,1.9-6.4,4.4c-6,9.1-12.3,18-18.8,27.4c-2.3-0.6-4.6-0.7-6.3-1.7
			c-16.9-9.6-27.6-23.7-31.1-42.9c-1-5.2,0.1-6.3,5.4-6.4c3.6,0,7.1,0.2,10.7,0.4c4.7,0.3,8.5,1.6,11.7,6c5.9,7.9,19.1,6.6,25.7,1.9
			c13-9.2,16.3-33,6.8-45.8c-5.3-7.2-17.1-10.1-25.2-6.3c-1.3,0.6-2.7,1-3.7,1.9c-9.6,9.1-19.9,3.5-31.4,2.2
			C819.5,1433.7,822.9,1423,832,1415z M784.7,1397c-1.9-0.1-3.7-0.3-5.4-0.5c-1.9-8.6-1.3-9.4,6.1-9.2c4.1,0.1,8.2,0.7,12.3,1
			c9.6,0.8,19.1,1.6,28.6,2.3c5.8,0.4,8.1,1.8,7.9,5c-0.1,3.2-2.1,3.8-8.5,3.5C812.2,1398.4,798.4,1397.7,784.7,1397z M845.2,1402
			c-4.4-6.7-5.5-22.5-2.7-32c1,0.6,2.4,1,2.5,1.7C847.7,1381.8,844.9,1391.9,845.2,1402z M964.7,1566.4c-1.2-1.9-2.4-4.6,0.4-5.5
			c1.6-0.5,4.9,1,5.9,2.6c3,5,4.9,10.4,4.7,16.7c-1.6,6-3.1,12-4.8,18c-0.8,2.7-3,3.1-5.3,2.4c-2.6-0.8-3.2-2.7-2.3-5.2
			c0.4-1,1-2,1.4-3C967.9,1583.8,969.7,1575.1,964.7,1566.4z M978.7,1600c0.5-0.8,1.2-1.5,2.6-3.4v17.8c-14.6,0.2-28.3-2.6-43.3-5.8
			c1-1.9,1.5-4.2,2.4-4.4c7-1.5,14.1-2.1,20.9,1.1C971.7,1610.1,973.2,1609.7,978.7,1600z M974,1555.5c-5.9-4-9-4.1-14.8,0.2
			c-4.5,3.3-9.6,3.8-14.8,3.5c-2.8-0.2-6.1-0.7-6.3-4.1c-0.1-2.7,0.6-6.1,2.1-8.2c2.7-3.5,7-3.9,11.3-3.2c6.8,1,13.5,2,20.3,2.8
			c8.7,0.9,9.2,1.3,9.4,9.9c0,1.3,0,2.7,0,5.4C978.2,1558.9,976.2,1557,974,1555.5z M935.4,1534.6c-0.7-11.4,0.3-12.5,10.8-13.5
			c6-0.6,12.1-1.3,18.1-1.8c1.3-0.1,2.9,0,3.9,0.7c5.4,3.9,2.7,9.5,2.7,14.4c0,3.4-2.7,5.2-6.2,5
			C954.7,1538.9,944.9,1539.3,935.4,1534.6z M978,1539.2c-2.9,0-3.4-2.3-3.4-4.6c0-3.3,0-6.5,0.1-9.8c0.1-3.5,2.3-5.1,7-6.5v16.6
			C981.9,1537.4,980.7,1539.2,978,1539.2z M981,1491.3c-0.2,5.5-1.8,7.1-7.6,7.4c-6.9,0.4-13.8,0.1-20.6,0.2
			c-4.2,0.1-6.1-1.9-6.1-5.9c0-13.1,0-26.1,0-39.8c12-1.2,22.8-2,34,0.2c0.4,2,0.9,3.5,0.9,5.1
			C981.5,1469.5,981.4,1480.4,981,1491.3z M975.4,1506c-0.1,0.7-0.1,1.4-0.2,2.1c-10.3,1.3-20.6,2.5-30.9,3.7
			c-1.9,0.2-3.9,0.4-5.7,0c-1.1-0.2-2.6-1.4-2.7-2.3c-0.1-0.9,1.1-2.2,2-2.9c0.8-0.6,2.1-0.8,3.1-0.8
			C952.4,1505.8,963.9,1505.9,975.4,1506z M939.7,1495.7c0,0.8-0.5,1.5-1,3c-8.7,0-17,0.3-25.2-0.1c-5.6-0.3-6.6-1.7-6.7-7.2
			c-0.2-9.9-0.3-19.7-0.1-29.6c0.1-7.7,1.4-8.7,9.4-8.9c6.3-0.2,12.7-0.5,19-0.6c3.2-0.1,5.3,1.2,5.2,4.8
			C940.2,1469.9,939.9,1482.8,939.7,1495.7z M893.5,1521c-1.6,3.4-3.3,7.4-6.2,9.4c-5.4,3.6-11.7,5.9-17.7,8.7
			c-0.5,0.2-1.4-0.4-2.8-0.9c1-1.6,1.8-2.9,2.6-4.2c3.5-5.2,6.9-10.5,10.4-15.6c3.3-4.8,7.7-5.7,11.9-2.1
			C892.9,1517.2,894.2,1519.9,893.5,1521z M875.5,1473.8c0.6,8.1-4.1,12.1-8.4,15.9c-2.7,2.4-8,1.5-12.6-1.1
			C866.4,1484.1,866.4,1484.1,875.5,1473.8z M871.7,1456.1c5.9,2.1,5.3,5.5,3.3,9.2C874.2,1462.7,873.2,1459.9,871.7,1456.1z
			 M867.5,1451.7c-3.8-1.1-6.4-1.8-10-2.9C865.2,1445.4,865.5,1445.4,867.5,1451.7z M805.4,1576.6c1.6-3,4.1-5.9,7.7-5.1
			c2.6,0.6,5.7,2.6,6.9,4.8c1.8,3.2,2,7.2,3,11.6c-1.4,4.3-2.5,9-4.5,13.3c-2,4.1-5.5,4.3-8.6,1.4
			C804.4,1597.7,801.9,1583.1,805.4,1576.6z M811.2,1547.6c0-1,0.3-2.1,0.6-4.3c37.9,4,75.3,6.6,112.1,13.3c0,0.6,0,1.1,0,1.7
			c-7.3,0.5-14.6,1-21.9,1.5c-6.8,0.4-13.7,0.9-20.6,1.3c-17.6,1-35.2,1.8-52.8,2.7C811,1564.7,811,1564.7,811.2,1547.6z
			 M915.2,1636.6c6-0.9,11.9-1.7,17.9-2.3c13.9-1.4,27.8-2.6,41.7-3.8c1.8-0.2,3.6,0.4,5.4,0.6c0.2,0.8,0.4,1.5,0.6,2.3
			c-2.6,1.1-5.2,2.8-7.9,3.2c-5.7,1-11.4,1.6-17.2,2c-14.2,1-28.4,1.8-43,2.6C910.9,1638.7,912.2,1637.1,915.2,1636.6z
			 M932.4,1659.5c6.3-3,10.9-0.5,11.3,6.4c0.2,4.3,0.2,8.7,0.2,13.1c-0.1,8.3-2,10.1-10.1,10.5c-1.3,0.1-2.7-0.1-5.7-0.3
			c-0.5-7.5-1.2-14.5-1.4-21.4C926.4,1663.9,928.9,1661.1,932.4,1659.5z M940.9,1650.9c-1.6,0-3.1-1.4-4.7-2.1
			c0.7-1.1,1-1.8,1.3-1.9c12.7-1.2,25.5-2.3,38.2-3.4c3.4-0.3,5.8,0.7,6.2,4.7c0.5,4.7-0.5,7.1-4.9,8c-8.3,1.7-16.6,2.9-26.2,4.6
			C950.7,1653.4,947,1651,940.9,1650.9z M981.2,1437.5c-0.2,6.3-1.4,8.2-7.5,8.5c-12.9,0.5-25.8,0.1-39.1,0.1
			c-0.5-5.4,2.2-6.2,5.5-6.3c5.7,0,11.4,0,18.3,0c0-7.4,0.1-13.5,0.1-19.7c0-2.7-0.2-5.5,0.2-8.2c0.5-3.7,2.1-7.4,6-8.1
			c6.3-1.2,9.2-5.5,12.2-10.2c0.6-0.9,1.4-1.7,2.5-3c1.1,1.3,2.8,2.4,2.8,3.5C982,1408.6,981.7,1423,981.2,1437.5z M941.4,1388.9
			c6.8,0.1,13.6,0.8,20.4,1.3c0.1,0.7,0.2,1.5,0.2,2.2c-8.6,2.8-17.1,5.7-26.3,8.7c-0.3-2.8-0.8-4.3-0.7-5.9
			C935.2,1389.9,935.9,1388.9,941.4,1388.9z M936.7,1369.8c10.6-2.1,22.5,3.2,30.3-9c3.3,7.6,2.5,13.5,2.4,19.9
			c-10.3,3.6-20.5,3.1-31.6,1C937.4,1377.7,937.2,1374,936.7,1369.8z M951.7,1433.6h-14c-1.7-7.8,5.3-21.6,13.1-26.2
			C953.4,1415,953.7,1424.4,951.7,1433.6z M954.9,1321.3c5.9-1.2,11.9-2.3,17.8-3.5c5.6-1.2,7.2-0.3,7.4,5.2c0.1,3-0.3,6-0.1,9
			c0.3,7.3,0.8,14.7,1.3,22c0.2,2.9,0.3,5.7,0.4,8.6l-1.6,0.5c-3-6.8-6.2-13.5-9-20.3c-3.3-7.9-7.7-14.3-17.1-15.5
			c-2.3-0.3-4.5-1.2-6.8-1.8c0-0.7,0-1.4,0-2C949.7,1322.5,952.4,1321.8,954.9,1321.3z M827.9,1320.2c3.8,0,7.5-0.3,11.2,0.1
			c12.3,1.4,24.8,2.2,36.9,4.8c20,4.4,40.4,4.5,60.7,6.1c5.5,0.4,11,1,16.4,1.7c1.6,0.2,3.3,0.7,4.6,1.5c4.9,3,6.8,11.7,4.4,19.5
			c-1.8,6.1-6.2,9.6-12.9,9.2c-10.7-0.6-21.4-1.8-32.1-2.7c-21.4-2-42.8-3.9-64.1-6.1c-9-0.9-17.9-2.5-26.7-3.8
			C826.9,1340.2,827.4,1330.8,827.9,1320.2z M834,1358.1c15.5,1.8,31,4.1,46.6,5.8c13.7,1.5,27.4,2.4,41.1,3.4
			c10,0.7,10.5,1.1,9.6,11.2c-0.1,1.6-0.8,3.1-1.2,5.1c-18.6,1.6-36.5,3-54.3,4.5c-4.1,0.4-8.2,0.9-12.3,1.5
			c-9,1.2-11.4-1-11.3-10.1c0-1.9,0.3-3.8,0.2-5.7c-0.1-3.2,0.7-6.8-3.3-8.5c-4.2-1.7-9.1-3.1-12.6-0.1c-7.4,6.5-15.2,1.7-22.8,1.6
			c-2.7,0-3.5-3-3.1-5.8c0.5-2.9,2.3-4.3,5.2-4.2C821.9,1357.2,828,1357.4,834,1358.1z M817.9,1321.3c3,5.9,4.3,12.4,2.7,18.9
			c-0.6,2.5-2.3,4.9-4.1,6.8c-3.9,4-9.1,3.5-11.5-1.6c-1.9-4-2.4-8.7-3.6-13.5c1.3-3.8,2-8,4.1-11.3
			C808.7,1315.3,814.9,1315.8,817.9,1321.3z M807.4,1299.8c2.1,2.9,3.8,5.3,6.3,8.7c-5.5,2-9.2,3.4-13.7,5.1
			C799.7,1307.4,803,1304.1,807.4,1299.8z M819.7,1375.3c2.7,0.3,5.5,0.2,8.2,0.2c6,0,6.3,0.3,5.7,7.8c-7,0-14.1,0.3-21.2-0.1
			c-9.1-0.5-18.1-1.3-27.1-2.3c-5.8-0.6-6.5-1.9-6.5-8.8c2.6,0,5.3-0.2,8,0C797.7,1373.1,808.7,1374.3,819.7,1375.3z M794.2,1321.9
			c0.5,0.1,1,0.1,1.5,0.2c0,4.6,0.4,9.2-0.1,13.8c-0.3,2.9-2.8,4.7-5.9,4.6c-2.7,0-5.3-0.6-10.3-1.3
			C785.2,1332.4,789.7,1327.1,794.2,1321.9z M767.9,1349.6c7.5-1.7,15.1-3.1,22.7-4c1.5-0.2,4.5,2.1,4.6,3.4
			c0.5,5.3,0.2,10.7,0.2,16.9c-5.3-0.4-9.7-0.5-14-1.1c-1.2-0.2-2.6-1.2-3.1-2.3c-1.6-3.3-4.1-4.8-7.8-5.2c-1.5-0.1-3.1-1.3-4-2.5
			C765.2,1352.8,765.2,1350.2,767.9,1349.6z M771.5,1397c0,1.1-0.7,2.2-1.4,4c-3.5-6.8-3.5-29,0-35.6c0.6,0.9,1.3,1.6,1.3,2.2
			C771.5,1377.3,771.7,1387.2,771.5,1397z M762.9,1416.9c0.1-6,0.7-6,6.4-7.3c10.5-2.4,21-3.5,32-2.2c4.9,13.2,1.3,26.4,1.2,40.4
			c-5.5,0-10.6,0-15.7,0c-5.5,0-10.9,0-16.4-0.1c-5.8-0.1-7.5-1.6-7.6-7.1C762.7,1432.7,762.7,1424.8,762.9,1416.9z M760.4,1376.3
			c-0.7,1.5-3.2,2.1-4.9,3.1c-0.2-0.4-0.3-0.8-0.5-1.2c-8-0.4-16-0.9-23.9-1.3c-1.4-0.1-3.1,0.2-4-0.4c-1.8-1.3-4.4-3.2-4.5-4.9
			c-0.2-3.1,2.7-4.5,5.8-4.3c7.7,0.6,15.4,1.2,23,2c1.9,0.2,3.8,0.8,5.5,1.6C759.2,1371.8,761.7,1373.4,760.4,1376.3z M759.4,1362.3
			c-12.7,0.3-24.9-2.9-37.4-3.4c0-0.7-0.1-1.5-0.1-2.2c2.2-0.2,4.4-0.7,6.6-0.7c8.8,0.2,17.6,0.6,26.4,0.9
			C757.7,1357,759.9,1357.8,759.4,1362.3z M722.4,1342.2c1.8-4.3,4.5-7.3,9.4-8.1c9.5-1.4,17.4,3,19.5,11.7
			c-8.5,4.1-17.4,3.4-26.3,1.9C721.9,1347.2,721.2,1345,722.4,1342.2z M716.4,1431.7c2.3-6.1,3.8-12.4,5.8-18.8
			c2.8,4.3,3.1,4.3,1.6,15.9c-0.7,5.5,3.2,11.3-1,16.6C714.7,1441.8,713.7,1438.9,716.4,1431.7z M711,1479.2
			c0.5-11.2,2.5-22.5-0.9-33.6C720.5,1452.5,721.2,1472,711,1479.2z M708.2,1422.5c-1.8,3.9-3.6,7.8-5.8,12.5
			c-10.9-2.2-20.2,1.1-27,12c-2.7-5.7-1.2-10.2-0.4-14.4c1.7-8.3,3.9-16.5,5.9-24.7c2.2-8.5,3.5-9.5,12.6-9.3c0.6,0,1.1,0,1.6,0
			C712.7,1399.6,714.4,1409.4,708.2,1422.5z M704.7,1390.5c-3.8,0-7.3,0.3-10.8-0.2c-1.4-0.2-3-2.1-3.4-3.5c-0.6-2.2,0.2-4.7,3-4.8
			c3.2-0.2,6.7-0.2,9.7,0.8C706.5,1383.7,706.4,1386.7,704.7,1390.5z M704.2,1375.5c-2.8-0.1-5.9,0-8.8-0.4
			c-3.4-0.6-5.4-2.8-4.9-6.4c0.4-4,3.6-3.4,6.3-3.3C705.4,1365.6,706.7,1367.4,704.2,1375.5z M639.9,1371.6
			c-1.1,4.9-4.4,8.6-7.6,8.7c-4.8,0.2-10.3-3.8-12-8.3c-2.6-7-1.3-13.4,2.3-19.5c3.2-5.5,7.6-6,12-1.5c3.9,3.9,5.5,8.3,5.5,16.2
			C640.2,1367.8,640.2,1369.7,639.9,1371.6z M669.4,1384.2c-8.4,0-16.6-1.3-24.3-3.2c0.4-10.8,0.8-20.1,1.1-30.4
			c19,1.2,38.5,2.4,57.9,3.6c0.6,4-1.8,4.4-4,4.2c-7.1-0.5-14.2-1.4-21.2-2.1c-0.8-0.1-1.6-0.1-3.4-0.3c-0.6,2.2-1.5,4.4-1.6,6.6
			c-0.4,5.4-0.5,10.9-0.5,16.3C673.4,1381.9,672.4,1384.2,669.4,1384.2z M648.9,1456.3c13-2.5,25.6-1.7,38-1
			c4.5,0.2,6.1,2.5,6.3,7.1c0.2,5.3-1.2,8-5.7,8.4c-12.5,1.2-25.1,2-38.1,0.3c-0.2-2-0.5-3.5-0.5-5.1
			C648.9,1462.8,648.9,1459.6,648.9,1456.3z M633.7,1470.1c0-4-0.1-8,0-12c0.1-3.9,2.4-4.4,5.5-3.3
			C642.4,1467.3,641.2,1470.7,633.7,1470.1z M569.9,1597c-2,4.5-4.5,9-5.1,13.8c-1.4,11.8-4.1,23.9,3.4,35.5c-2.2,0-4.1,0.6-5.2-0.1
			c-9.9-6.3-18.8-13.5-23.1-24.9c-1-2.5-1.8-5.3-1.9-7.9c-0.6-16.5,0.7-32.7,7.8-48.1c8.7-18.9,21.7-33.9,39.3-45.1
			c16.3-10.4,34-17.6,52.2-23.9c6.2-2.2,12.2-5,18.3-7.4c1.9-0.7,3.9-0.9,6.5-1.5c-0.9,5.7-3.9,7.4-7.9,8.4
			c-10.9,2.6-19.7,8.8-28.5,15.6c-16.2,12.7-26.4,30-37.8,46.3c-4,5.7-5.8,12.9-8.7,19.4C576.2,1583.7,572.9,1590.3,569.9,1597z
			 M660.9,1659.9c-9.3,0.8-18.7,1.8-28,2c-10.2,0.1-20.4-0.5-30.5-1.1c-3.1-0.2-6.1-1.5-9.1-2.3c0-0.7,0.1-1.3,0.1-2
			c5.5-1,11-2.4,16.6-2.9c16.1-1.6,32.3-2.9,48.4-4.5c3.3-0.3,6.7-1.7,8.5,2.5C668.7,1656,666.2,1659.4,660.9,1659.9z M665.9,1612.6
			c-0.7,0.6-1.4,1-1.5,1.4c-1.4,7-5.5,10.1-12.9,11c-12.8,1.6-25.3,5.2-36.7,11.7c-11.3,6.4-22.8,0.8-29.5-5.3
			c-3.2-2.9-4.9-6.4-3.9-11c1-5.3,2-10.7,2.3-16.1c0.4-6.4,3.5-11.2,7.6-15.9c7.3-8.5,14.2-17.4,23.8-23.6c1.6-1,3.2-2,6.1-3.7
			c1,6.1,1.6,10.9,2.5,15.6c2.1,10.3,7.2,13.6,17.7,11.6c1.6-0.3,3.3-0.6,4.9-0.7c25-0.6,50-1.2,75-1.8c0.5,0,1,0.3,2.7,0.7
			c0.4,3.4,0.8,7.2,1.2,11.5c-5.3,0.4-9.6,0.4-13.9,1c-5.3,0.8-4.7,6.1-7.3,10.2C691.7,1610.2,678.5,1611.4,665.9,1612.6z
			 M689.7,1671.6c-1,5.2-2.4,10.2-4.5,15.2c-2.4-10.3-0.8-20.6-1.2-32.4c4.8,0.5,8.4,0.8,12.3,1.2
			C697.2,1662.8,690.7,1666.1,689.7,1671.6z M731.2,1764.9c-6.9,1.2-7.8,0.5-7.9-6.3c0-6.6,0.1-13.1-0.1-19.7
			c-0.5-17.2-1.2-34.4-1.7-51.5c-0.2-8.1,0-16.2,0-24.3c0.9-0.3,1.8-0.6,2.7-0.8c1.7,2.8,3.4,5.6,5.3,8.7c0.4,0.1,1.1,0.6,1.9,0.6
			c11,1,11.3,1,11.7,12.4c0.8,23.7,1.4,47.5,1.9,71.2c0.2,6.7-0.5,7.2-7.2,8.4C735.5,1764,733.4,1764.5,731.2,1764.9z M880.2,1820.8
			c-48.6-13.9-94.8-30.9-141.9-48.3c5.1-2.7,9.6-3.2,14.4-1.6c1.8,0.6,3.6,1.4,5.3,2.3c9,4.9,17.8,4.3,27.8,1.8
			c23.7-6.1,47.9-7,71.9-0.9c4.8,1.2,9.8,1.6,14.7,2.5c6.8,1.2,8.2,2.8,8.3,9.8c0.2,9.3,0.4,18.6,0.4,27.9
			C880.9,1816.1,880.5,1818,880.2,1820.8z M765.2,1697.6c0.4,16.4,0.9,32.8,1.2,49.1c0.1,6,0,11.9,0,17.8
			c-10.8,0.7-13.3-0.7-13.6-9.7c-0.8-22.4-1.1-44.8-1.8-67.2c-0.2-6.8-0.6-13.5-0.9-20.6c1.6,0,2.6-0.2,3.6,0
			c15.9,3.2,31.8,6.3,47.7,9.6c10.8,2.2,21.4,5,32.2,7.2c12.9,2.6,25.9,5,38.9,7.2c3.1,0.5,6.4,0.4,7.3,4.1c0.3,1.3-0.4,3.3-1.4,4.4
			c-2.5,2.6-5.4,1.5-8.4,0.4c-6.1-2.4-12.3-4.8-18.6-6.8c-7.9-2.5-15.9-3.7-24.3-3.7c-13.5,0-26.7-2-39.3-7.9
			c-5.6-2.6-12-3.6-18.2-5c-3.5-0.8-5,1.4-5,4.8C764.9,1686.7,765.2,1692.2,765.2,1697.6z M855.4,1679.7c-16.3-4.5-33-5.7-49.5-8.2
			c-12.7-2-25.1-6-37.6-9c-5.6-1.3-11.3-2.4-16.9-3.5c-14.1-2.5-28.2-4.8-42.3-7.5c-10.8-2.1-21.5-4.6-32.2-6.8
			c-4.3-0.9-5.9-3.8-5.8-7.8c0.2-5.5,0.6-10.9,0.9-16.6c1.5-0.4,2.8-1.2,4-1.1c4.6,0.5,9.3,1,13.8,1.9c17,3.1,34,6.3,51.1,9.4
			c3.8,0.7,7.6,1.2,11.4,1.8c16.6,2.6,33.2,4.9,49.7,7.9c11,2,21.8,5.5,32.8,7.6c9.7,1.9,19.5,2.7,29.3,4.2c6.7,1,13.4,2.2,20.1,3.5
			c9.7,1.9,19.3,3.9,28.9,6.2c2,0.5,5.1,2.5,5.2,4.1c0.8,7.8,1.3,15.7-0.4,23.8c-9.3,0-17.6-0.2-26.1-2.5
			C879.9,1684,867.4,1683,855.4,1679.7z M896.5,1698.2c7.5-1.1,8.4-0.8,10.6,4.2c4.3,9.4,5.8,10.1,16.3,7.9c0.8-0.2,1.6-0.3,3.3-0.6
			c0.4,2.4,1.2,4.7,1.2,6.9c0.3,32.2,0.4,64.5,0.7,96.7c0,4.4-1.9,6.6-5.9,7.4c-1.1,0.2-2.1,0.5-3.2,0.6c-7,0.9-14.1,1.8-21.6,2.8
			C895.4,1814.3,894.4,1706.7,896.5,1698.2z M942.2,1841.7c-8.2-4.1-17.1-6.8-25.5-10.8c7.7-1.4,14.8-5.4,23-2.7
			c10.2,3.3,20.6,6.1,30.8,9.2c1.8,0.5,3.4,1.6,5.9,2.8C964.4,1844.6,953.7,1847.4,942.2,1841.7z M941.2,1820.5
			c-3.7-1.7-4.2-4.5-4.3-8c-0.4-15.3-0.8-30.6-1.1-45.9c-0.4-19.4-0.5-38.9-0.9-58.3c0-2.8-1.3-5.7-2.1-8.9c2.1-0.9,4.3-2.2,6.6-2.7
			c6.9-1.6,9.8-6.2,10.7-12.8c0.9-6.6,1.9-7.4,8.4-6.7c3.5,0.3,7.1,1,10.3,2.3c15.8,6.6,15.7,6.7,16.1,23.8
			c0.4,19.9,1.1,39.9,1.4,59.9c0.3,20.8,0.4,41.6,0.5,62.3c0,2.1-0.4,4.2-0.8,7C970.2,1830.1,955.2,1826.7,941.2,1820.5z
			 M1007.9,1864.3c-3.4-0.6-6.4-1-9.3-1.8c-3.8-1.1-7.5-2.6-13.2-4.7c8.6-2,15.3-3.6,22.5-5.3V1864.3z M1038.6,1857.8
			c-5.3,1-10.7,1.7-16.7,2.7v-11.4c7.9-2,15.8-4.1,24.1-6.2c0.2,2.3,0.6,4.2,0.6,6C1046.3,1856,1045.9,1856.4,1038.6,1857.8z
			 M1282.9,1794.7c-12.3,2.9-24.5,6.1-36.7,9.4c-18,4.7-35.9,9.9-54.1,14.3c-12.2,3-24.7,4.9-37.1,7.3c-1.3,0.3-2.9,0-4,0.7
			c-12.6,7.6-27.3,8.2-40.9,12.3c-14.6,4.5-30.4,4.8-44.5,11.6c-1.6,0.8-3.7,0.4-6.2,0.6c-0.3-3.9-0.5-7.2-0.7-10.2
			c1.2-0.8,1.7-1.3,2.1-1.3c10,0.4,19.3-2,28.8-5.1c20-6.7,40.1-13.6,61.5-14.8c4.2-0.2,8.4-2.3,12.6-3.5c5.8-1.6,11.6-3.1,17.4-4.7
			c18.2-5.3,36.6-9.7,55.2-13.3c9.1-1.8,17.9-5.3,26.9-7.8c3.2-0.9,6.4-1.4,9.6-2.3c4.2-1.2,8.3-2.7,12.5-3.9c2.2-0.6,4.5-0.6,7-1
			C1291.1,1792.8,1290.9,1792.8,1282.9,1794.7z M1278.9,1766.3c-17.3,4.3-34.7,8.6-52,13.2c-19.9,5.3-39.8,10.6-60.2,14.2
			c-12.1,2.2-23.8,6.8-35.7,9.8c-13.3,3.4-26.8,6.1-40.2,9.4c-12,2.9-23.9,6.1-35.9,8.9c-14.7,3.4-29.5,6.4-44.3,9.6
			c-4.5,1-8.9,2.3-14.3,3.7c-0.6-13.9-1.3-27-1.6-40.1c-0.6-32.8-1-65.6-1.6-98.5c0-1.6-0.2-3.3-0.1-4.9c0.1-3.2,1.4-4.9,4.9-5.3
			c14.1-2,28.2-4.2,42.3-6.3c1.4-0.2,2.7-0.4,4.1-0.4c25.7-0.2,50.9-5.7,76.2-8.8c16.7-2,33.4-4.1,50-6.4c15.8-2.2,31.5-5,47.2-7.3
			c6.8-1,13.8-0.8,20.5-2.1c8.9-1.7,17.5-4.6,26.4-6.5c5.1-1.1,10.3-1.4,15.5-1.7c3.3-0.2,4.6,2.1,3.9,4.8c-0.9,3.4-2.7,6.5-3.8,9.9
			c-1.6,5.1-3.1,10.4-4.1,15.6c-0.8,4.3,1.5,7.2,5.3,9.2c4.6,2.4,9.3,3.1,14.4,2.2c4.3-0.8,8.6-1.4,14.2-2.2c0,8.8-0.1,16.9,0,25.1
			c0.2,13.4,0.6,26.8,0.7,40.2c0,6.6-0.1,6.8-6.4,8.5C1295.9,1762.3,1287.4,1764.2,1278.9,1766.3z M1305.1,1787.8
			c-0.6-9.7-0.3-10,8-11.1c2.4-0.3,4.7-1,7-1.6C1321.4,1783,1319.1,1784.8,1305.1,1787.8z M1319.9,1754.9v-20.6
			c3-1.2,6.2-2.9,9.5-3.6c12.7-2.5,25.6-3.9,38-7.1c12.2-3.1,23.6-2.7,35.3,1.9c3.4,1.4,7.5,1.1,11.3,1.5c3.3,0.3,6.6,0.5,8.3,4.1
			C1388.9,1741.6,1329.3,1755.6,1319.9,1754.9z M1445.4,1751.4c-18.1,4.8-36.1,10-54.4,13.5c-16.8,3.2-32.9,8.8-49.3,13.2
			c-2,0.6-4.2,0.6-6.7,1c-0.6-2.5-1.2-4.6-1.6-6.5c0.6-0.5,1-1,1.4-1.2c2.6-0.9,5.1-2.1,7.8-2.6c37.9-7.6,74.8-19,112.1-28.5
			c0.4-0.1,0.9,0.5,1.6,1C1455.9,1748.1,1450.4,1750.1,1445.4,1751.4z M1473.4,1744c-1.8,0.5-3.8-0.4-5.8-0.6
			c0.5-2.2,0.2-5.2,1.6-6.4c2.1-1.8,5.3-2.3,8.4-3.4C1479.6,1739.4,1478.1,1742.7,1473.4,1744z M1484.9,1716.1
			c-11.3,2.4-22.6,4.6-33.5,8.2c-3.9,1.3-5.9-0.6-6.2-5.2c-0.3-6.6-0.2-13.1-0.2-19.7c-0.1-30.4-0.2-60.8-0.2-91.2c0-3.5,0-7,0-10.1
			c5.3-2.1,5.6,0.6,5.7,3.6c0.3,18,0.7,36.1,0.8,54.1c0.1,18.6,0,37.2,0,56.1c2.6,0.6,4.5,1.7,6.1,1.4c8.4-1.3,16.7-3,25.1-4.5
			c5.7-1,11.4-1.6,17.1-2.8c12.9-2.7,25.7-6.1,38.6-8.6c14.6-2.7,29.3-4.7,44-7c1.8-0.3,3.7-0.4,6.8-0.7c-3.3,3.9-6.9,3.9-10.1,4.7
			C1547.6,1701.8,1516.3,1709.5,1484.9,1716.1z M1590.1,1714.4c-5.1,1.2-10,2.8-15.1,4.1c-16.4,4.2-32.8,8.8-49.5,12.3
			c-9.4,2-18.8,3.7-27.7,7.3c-0.5,0.2-1,0.4-1.6,0.5c-2.7,0.6-5.6,0-5.6-2.9c0-1.8,2.2-4.4,4-5.1c4.3-1.7,8.9-2.7,13.5-3.4
			c6.5-1.1,12.7-3.1,19-5.1c10.6-3.4,21.7-5.4,32.6-7.7c9.3-2,18.7-3.7,28.1-5.5c1.8-0.3,3.7,0,5.3,0
			C1594.6,1712.6,1593.1,1713.7,1590.1,1714.4z M1610.9,1710.2c-1.6,0-3.1-1.5-4.6-2.3c1-1.8,1.5-4.5,3-5.1c2-0.9,4.6-0.2,7.6-0.2
			C1616.9,1708,1614.8,1710.3,1610.9,1710.2z M1701.4,1686.4c-10.9,2.7-21.9,5.3-32.7,8.3c-11.6,3.2-23.1,6.6-34.7,10
			c-0.8,0.2-1.5,0.7-2.7,1.2c-1-0.9-3.2-2-3.1-3c0.1-1.4,1.5-3.7,2.8-4c7.6-2.3,15.3-4.1,23-6.1c10.3-2.7,20.6-5.4,30.9-8.3
			c5-1.4,9.8-3.2,14.8-4.7c2.3-0.7,4.6-0.6,5.3,2.2C1705.6,1684.9,1703.9,1685.8,1701.4,1686.4z M1731.1,1649.4
			c-5.6,1.4-11,3.1-16.6,4.7c-10.9,3-21.9,5.2-33.2,6.3c-9.8,1-19.3,4-29,6c-21.8,4.5-43.6,8.9-65.4,13.4
			c-5.1,1.1-10.2,2.2-15.2,3.8c-4.7,1.5-9.1,1.7-14.1-0.8c0-3.9,0.2-7.9,0-12c-0.4-7.1-0.7-14.2-1.4-21.3c-0.8-8.1-1.7-8.8-10-10.3
			c-1-0.2-2-0.3-3.4-0.5c1.8-7.8,3.5-15,5.5-23.5c0,0,1.4-0.9,2.9-1c11.5-1.2,23.1-1.8,34.6-3.3c12.2-1.6,24.3-4,36.5-5.8
			c7.3-1.1,14.7-2,22.1-2.6c26.6-2,53.2-3.9,79.8-6c2.1-0.2,3.9-2.5,6-3.6c1.3-0.7,3.2-1.6,4.3-1.2c1.1,0.5,2,2.6,2,4
			c0.2,15.3,0,30.6,0.2,45.8C1736.6,1645.5,1735.6,1648.3,1731.1,1649.4z"/>
		<path class="st0" d="M1269.6,1385.7c0.1-4.7-2.1-7.3-6.4-8.2c-5.9-1.2-11.7-2.7-17.7-3.4c-20.5-2.4-41-4.6-61.5-6.8
			c-10.4-1.1-20.8-2.2-31.2-3.2c-6.8-0.7-13.7-1.7-20.5-1.8c-7.8-0.1-9,1.1-9.4,9.1c-0.3,6.5,0.6,13.1,0.5,19.6
			c-0.2,30.1-0.7,60.1-0.9,90.2c-0.2,23-0.1,45.9,0,68.9c0,6.4,1.8,8,8.6,8.2c6.6,0.2,13.2,0,19.8,0c0-0.2,0-0.5,0-0.7
			c7.4,0,14.9,0.3,22.3-0.1c13.5-0.6,26.9-1.8,40.3-2.5c15.1-0.7,30.3,0.9,45.3-2.2c8.7-1.8,9.2-2,9.2-10.5c0.3-35,0.5-70,0.7-105.1
			c0-5.5-0.6-10.9-0.6-16.4C1268.9,1409.2,1269.4,1397.4,1269.6,1385.7z M1260.9,1544.8c-20.5,1.4-41.4,0.6-62.1,2.1
			c-20.9,1.5-41.6,2.2-63.7,0c5-9,9.4-16.7,13.7-24.5c8.4-15.3,16.8-30.6,25.1-46c5.3-9.9,11.9-18.7,20.7-27.1
			c1.1,2.1,2.2,3.3,2.4,4.6c0.9,5.6,1.5,11.3,2.4,17c0.3,2.2,1,4.3,1.9,6.2c2.9,6.1,5.6,6.7,10.7,2.5c1.3-1,2.7-2.1,3.5-3.4
			c6.6-11.6,15.6-21.9,20.3-34.5c5.4-14.6,11.7-28.9,18.9-42.7c1.3-2.5,3.3-4.7,5.4-7.6C1263.8,1401.7,1264.1,1520.7,1260.9,1544.8z
			"/>
		<path class="st0" d="M1295.4,1446.8c0.1,9.7-0.2,19.5-1.2,29.2c-0.5,4.9-8.3,9.7-13.1,8.8c-1.8-0.3-3.3-1.8-5.5-3.1
			c1.4-1.7,1.5-2.1,1.7-2.1c9.6-3.3,12.4-10.3,10.8-19.7c-0.3-1.8-0.2-3.8,0-5.7c0.7-5.5-1.2-9.3-6.5-11.7c-2.2-1-3.7-3.4-5.8-5.4
			c6.1-3.7,12.1-3,15.7,1.8C1293.4,1441.2,1295.4,1444.1,1295.4,1446.8z"/>
		<path class="st0" d="M1049.4,1401.9h-0.4c0-7.6,0.2-15.3,0-23c-0.2-6-1.1-7.4-7-8.1c-10.4-1.2-20.7-1.9-31.2-2.3
			c-4.5-0.2-5.8,1.7-5.7,6.1c0.3,13.3,0.8,26.7,0.9,40.1c0.1,4.9-0.2,9.8-0.9,14.6c-0.9,6.2-0.5,7.2,6.1,7.1
			c9.9-0.1,19.8-0.6,29.7-0.6c3.6,0,5.8-1.6,6.8-4.7c0.8-2.6,1.5-5.3,1.6-7.9C1049.7,1416.1,1049.4,1409,1049.4,1401.9z
			 M1029.6,1429.9c-3.6,0.1-7.2,0.2-10.7-0.1c-5.1-0.3-7.1-2.1-7.1-7.1c0-15.5,0.4-31,0.7-46.3c8.3-1.6,20-0.2,27.7,3.3
			c0,4,0,7.6,0,11.1c0.1,7.6,0.3,15.2,0.5,22.8c0,1.6,0.2,3.3,0.2,4.9C1040.9,1428.7,1039.9,1429.7,1029.6,1429.9z"/>
		<path class="st0" d="M1771.4,1132v50.8h-9.8v-36.6c-3.6,3.3-7.8,5.8-12.6,7.4v-8.8c2.6-0.8,5.3-2.4,8.3-4.7c3-2.3,5-5,6.2-8.1
			L1771.4,1132L1771.4,1132z"/>
		<path class="st0" d="M1814.4,1138c-3.3-4-7.6-6-12.7-6c-4.8,0-8.7,1.6-11.7,4.7c-3.1,3.1-4.6,7.3-4.6,12.4c0,4.9,1.4,8.9,4.4,12
			c2.9,3.1,6.4,4.6,10.4,4.6c3.7,0,6.8-1.4,9.2-4.3c-0.4,5.8-1.3,9.6-2.7,11.5c-1.4,1.9-3.1,2.8-5.1,2.8c-1.6,0-2.9-0.5-3.9-1.4
			s-1.6-2.3-1.8-4.3l-9.5,1c0.7,4.2,2.3,7.3,4.7,9.4c2.5,2.1,5.7,3.2,9.7,3.2c5.5,0,10-2.1,13.5-6.2s5.2-10.8,5.2-20
			C1819.4,1148.5,1817.8,1141.9,1814.4,1138z M1806.4,1156.4c-1.3,1.5-2.9,2.2-4.7,2.2c-2,0-3.6-0.8-4.9-2.3s-2-3.9-2-7.2
			c0-3.2,0.6-5.5,1.8-7c1.2-1.4,2.7-2.1,4.5-2.1c1.9,0,3.6,0.9,5,2.6c1.5,1.7,2.2,4.1,2.2,7.3
			C1808.4,1152.8,1807.8,1154.9,1806.4,1156.4z"/>
		<path class="st0" d="M1837.3,877.2c-1.3-9.6-4.4-18.6-9.7-26.8c-10.1-15.7-23.9-27.7-39.6-37.7c-8.3-5.3-16.6-10.6-25.1-15.6
			c-10-5.8-19.8-11.8-30.2-16.8c-15.4-7.3-31.1-13.7-46.7-20.5c-18.6-8.1-37.5-15.8-55.9-24.3c-19.4-8.9-38.2-19.5-58-27.6
			c-18.9-7.8-33.8-21.4-51.1-31.4c-6-3.5-6.2-6.6-2.1-12.2c4.1-5.5,8.3-10.8,12.6-16.1c5.3-6.6,10.8-13.1,16-19.8
			c3.7-4.9,5.9-10.3,6.4-16.6c0.8-9.1-4.4-15.4-9.2-22c-12-16.3-28.9-27.1-46-36.7c-22.7-12.7-46.4-23.7-71.4-31.4
			c-12.1-3.7-24.3-6.9-36.5-10c-11.4-2.9-22.9-5.7-34.5-7.9c-2-0.4-4.1-0.8-6.1-1.2c-16.4-3-32.8-5.7-49.1-8.7
			c-11.9-2.2-23.2-6.7-35.7-5.8c-5,0.4-8.9-3.3-11-8.4c1.6-1.3,2.8-2.5,4.2-3.3c10.3-6.6,15.6-15.6,14.5-28.2
			c-0.7-8.1-4-14.6-11.3-17.7c-8.6-3.6-18.6-2.8-24.9,3.5c-7.6,7.4-12.3,17.4-9.8,29.1c2.3,10.4,2.3,16-0.1,25.7
			c-4,16.7-8.1,33.4-12.6,50c-3.2,11.8-7.3,23.4-10.6,35.2c-2.9,10.8-5.1,21.7-7.9,32.6c-4.5,17.4-9.3,34.8-14.1,52.2
			c-4.3,15.3-8.8,30.5-13,45.7c-7.1,26.1-13.8,52.3-20.9,78.4c-5.7,21.1-11.7,42.1-17.7,63.1c-0.5,1.6-1.5,3-3.1,6.1
			c-1.4-5.9-2.1-10.1-3.4-14.1c-6.9-21-14-42-20.9-63c-3.9-11.9-7.4-24-11.2-35.9c-4.6-14.5-9.3-29-13.9-43.6
			c-3.7-11.4-7.3-22.9-10.9-34.4c-2.9-9.1-5.8-18.2-8.6-27.3c-4.7-15.7-9-31.4-13.8-47.1c-4-13.1-8.5-26-12.8-38.9
			c-4.4-13.5-8.9-26.9-12.9-40.5c-2.7-9.2-7.6-18.2-3-28.5c1.2-2.8,0.5-6.5,0.4-9.8c-0.6-12.2-8.1-21.9-19.7-25.5
			c-4.1-1.3-8-1.3-12.1,0.4c-10.5,4.3-16,14.1-13.7,25.1c1.7,8.1,5.3,14.8,12.8,19.1c2.8,1.6,7.1,2.6,6.3,7.6
			c-5,4.1-10.6,6.3-17.1,7c-9,1-18,2.5-27,4.1c-10.8,1.9-21.7,3.7-32.3,6.4c-20.8,5.3-41.4,11.4-62.1,16.8
			c-20.8,5.4-41,12.8-60,22.6c-15.4,7.9-30.4,16.5-45.1,25.6c-14,8.8-26.9,19.2-36.3,33.1c-4.6,6.9-6.2,14.4-4.4,22.7
			c2.3,10.4,9.4,17.8,15.7,25.6c6.2,7.6,13.3,14.6,19.8,22c3.5,4,3.5,8.3-0.2,10.7c-10.2,7-20.5,13.7-30.8,20.5
			c-3.2,2.1-6.9,3.4-10,5.7c-15,10.8-31.4,19-48.1,26.9c-12.4,5.9-25,11.2-37.4,17.2c-11.4,5.5-22.5,11.5-33.7,17.2
			c-3.9,2-7.8,4-11.7,5.9c-9.3,4.6-18.9,8.7-27.8,13.9c-14.9,8.8-29.2,18.5-43.9,27.8c-21.8,13.8-40,30.5-49.6,55.3
			c-3.6,9.2-1.7,18.3-2.1,27.5c0,0.7,0.5,1.6,1,2.2c3.5,4.9,6.5,10.3,10.6,14.6c17.7,18.4,35.7,36.4,53.7,54.5
			c16.4,16.5,32.8,33,49.3,49.5c5.8,5.8,12.3,10.9,17.6,17.2c13.1,15.4,26.4,30.7,37.1,48c12,19.4,23.1,39.2,31.4,60.4
			c5,12.7,8.9,25.9,13.7,38.7c2.7,7.4,5.2,8.2,11.7,3.9c24.2-16.1,48.3-32.6,72.6-48.6c14.7-9.6,29.6-19,44.8-27.8
			c14.2-8.2,29-15.6,43.5-23.3c8.7-4.6,17.3-9.7,26.4-13.5c22.1-9.3,44.1-18.5,63.7-32.5c6-4.3,12.9-7.4,18.8-11.7
			c7.6-5.4,14.6-11.5,21.9-17.3c15.2-12,26.5-27,34.6-44.4c5.3-11.3,2.8-22.5-6.5-31.2c-2.6-2.4-5.5-4.7-7.8-7.3c-2-2.3-3.7-5-5.8-8
			c8.9-3.8,16.8-7,24.5-10.5c20.5-9.3,41.3-17.9,60.3-29.9c10.1-6.4,21.5-9.8,33.1-12.4c1.6-0.4,3.3-0.3,4.9,0
			c4.3,0.8,8.6,1.9,13.1,2.9c2.4,4,4.9,7.7,3.2,13.4c-7.6,25.6-15,51.4-21.9,77.2c-2.6,9.5-3.8,19.3-5.6,29c-0.6,3,0.4,5.4,2.9,7.1
			c6.1,4,12.7,2.3,14.9-4.8c6.5-20.6,12.6-41.3,18.7-62c1-3.6,1.2-7.5,4.4-11.2c0.8,3.8,1.1,6.5,2.1,9c7.1,18,14.2,36.1,19,54.9
			c1,3.7,3.1,7,4.9,10.4c1.3,2.5,3.4,3.1,6.3,2.7c8.7-1.3,11.9-5.4,9.8-14.4c-3-12.5-6.2-25-10-37.2c-5.4-16.9-11.5-33.6-17.2-50.4
			c-1.6-4.9-2.9-10-3.8-15.1c-1-5.6,1.5-11.3,5.3-11.5c7.6-0.4,15.6-1,23,0.4c11.7,2.1,22.7,6.8,32.8,13
			c19.5,12,40.6,20.5,61.9,28.5c6.4,2.4,12.8,4.8,20,7.5c-1.4,2.7-2,4.7-3.2,6.1c-2.8,3.3-5.9,6.5-9,9.6c-7.8,8.2-11.1,20-4.9,31.6
			c7.1,13.2,13,27.2,25,37.2c1,0.9,1.5,2.3,2.4,3.3c11.5,12.6,23.4,24.5,38.9,32.4c28.1,14.1,57.8,24.3,86.7,36.4
			c13.6,5.7,27.1,12,40.3,18.6c12.7,6.3,25.3,13.1,37.7,20c13.2,7.3,26.3,14.8,39.2,22.5c5.6,3.4,10.5,8.1,16.1,11.5
			c20.2,12.2,40.5,24.1,60.9,36c6.1,3.6,10.2,1.5,11.7-5.8c0.7-3.2,1.6-6.4,2.4-9.5c5-19.4,13.1-37.6,21.5-55.7
			c6-13.1,12.2-26.4,19.6-38.8c9.6-16.2,21.2-31.2,33.8-45.3c7.8-8.7,15.4-17.5,23.3-26.1c1-1.1,2-2.2,2.9-3.2
			c10.6-11.4,21.3-22.8,32.4-33.8c9.1-9.1,19.1-17.4,28.1-26.6c15.3-15.7,29.9-32.1,42.1-50.5C1836.7,893,1838.6,885.6,1837.3,877.2
			z M1079.2,792.9c1.8,5.2,5.8,8.9,3.9,15c-10.8,3.7-21.9,7.7-33.1,11.4c-30.5,10-61.1,19.8-91.6,29.8c-11.7,3.9-23.3,8.1-35,12.1
			c-7.4,2.6-7.9,2.5-11.9-4.1c-2-3.3-3.6-6.7-5.3-10.2c-1.5-3.1-0.5-5.3,2.8-6.4c9.9-3.2,19.8-6.4,29.8-9.5
			c8.4-2.5,16.8-4.9,25.2-7.1c22.2-6,44.1-13.1,66.8-17.7c13.7-2.7,26.9-7.7,40.3-11.7C1073.8,793.9,1076.3,793.5,1079.2,792.9z
			 M856.8,644.6l-8.9-1.4l-6.2,6.5l-1.4-8.8l-8.1-3.9l4.9-2.5l3.1-1.6l0.5-3.6l0.8-5.3l6.3,6.3l0.6-0.1l8.3-1.5l-4.1,8L856.8,644.6z
			 M911.5,624.1l-6.5-1l-2.4-0.4l-1.3,1.4l-4.9,5.1l-1.3-8.6v-0.3l-0.4-0.2l-7.7-3.7l8-4l1.2-8.8l6.3,6.3l8.9-1.6l-4.1,8
			L911.5,624.1z M966.5,609.9l-8.7-1.4h-0.2l-0.2,0.2l-6.1,6.3l-1.4-8.8l-8.1-3.9l8-4l1.2-8.9l6.4,6.4l8.9-1.6l-4.1,8L966.5,609.9z
			 M1006.8,631.8l-6.4-1l-2.5-0.4l-1.3,1.4l-4.9,5.1l-1.1-6.8l-0.3-2.1l-1.2-0.6l-6.9-3.3l8-4l1.2-8.9l6.4,6.3l8.9-1.6l-4.1,8
			L1006.8,631.8z M1024.3,678.9l3.7,6.8l-5.5-0.9l-3.4-0.6l-2.4,2.5l-3.8,4l-1.2-7.9l-0.2-1l-0.4-0.2l-7.8-3.7l8-4l1.2-8.8l6.4,6.3
			l8.9-1.6l-3.1,6l-1,1.9L1024.3,678.9z M1040.4,731.6l3.6,6.7l-7-1.1l-1.9-0.3l-1.2,1.2l-5,5.2l-1.4-8.8l-8.1-3.9l8-4l1.2-8.9
			l6.4,6.4l8.9-1.6l-3.1,6.1l-1,1.9L1040.4,731.6z M861.3,736l-7.9-1.3l-1-0.2L851,736l-4.8,5l-1.4-8.8l-8.1-3.9l8-4l1.2-8.9
			l5.7,5.7l0.6,0.6l2.9-0.5l6-1.1l-4.1,8L861.3,736z M863.5,772.5l1.2-8.9l6.3,6.3l8.9-1.6l-4.1,8l4.3,7.9l-8.9-1.4l-3.3,3.4
			l-7.9-11.9L863.5,772.5z M877,743.9l8.1-4l1.2-8.9l6.2,6.3l0.1,0.1l0.4-0.1l8.5-1.5l-4.1,8l4.3,7.9l-8.9-1.4l-6.3,6.4l-1.4-8.8
			L877,743.9z M900.8,710.4l-6.7-3.2l6.1-3.1l1.9-1l0.2-1.2l1.1-7.7l6.4,6.4l4.1-0.7l4.8-0.9l-4.1,8l4.3,7.9l-8.3-1.3l-0.6-0.1
			l-0.6,0.7l-5.6,5.8l-0.7-4.3l-0.7-4.5L900.8,710.4z M917,755.3l0.2-0.1V755l1.2-8.7l6.4,6.4l2.5-0.5l6.3-1.1l-4,7.7l-0.1,0.2
			l0.1,0.2l4.1,7.7l-8.7-1.4h-0.2l-0.2,0.2l-6,6.2l-1.4-8.8l-8.1-3.9L917,755.3z M931.8,724.4l8-4l1.2-8.9l6.4,6.4l8.8-1.6l-4.1,8
			l4.3,7.9l-7.9-1.3l-1-0.2l-2.1,2.1l-4.2,4.3l-1.1-7.1l-0.3-1.7l-1.2-0.6L931.8,724.4z M948.3,691.7l8-4l1.2-8.9l6.3,6.4l8.9-1.6
			l-4.1,8l4.3,7.9l-8.6-1.4H964l-0.1,0.2l-6.1,6.3l-1.4-9L948.3,691.7z M972.5,738.9l1.2-8.9l6.4,6.4l8.9-1.6l-4.1,8l4.3,7.9
			l-7.6-1.2l-1.3-0.2l-0.8,0.8l-5.5,5.7l-1.4-8.8l-8.1-3.9L972.5,738.9z M986.8,713.2l7.9-4l0.1-0.1l1.2-8.9l6.4,6.4l0.8-0.2l8-1.4
			l-4.1,8l4.3,7.9l-8.9-1.4l-6.2,6.4l-1.3-8.3l-0.1-0.5l-0.1-0.1L986.8,713.2z M990.8,651.6l-4.1,8l4.3,7.9l-8.9-1.4l-6.2,6.5
			l-1.4-8.8l-8.1-3.9l8-4l1.2-8.9l6.3,6.3L990.8,651.6z M942.3,628.8l8.9-1.6l-4.1,8l4.3,7.9l-8.9-1.4l-6.2,6.4l-0.9-6l-0.5-2.9
			l-1.6-0.8l-6.4-3.1l8-4l1.2-8.9L942.3,628.8z M935,665.9l-4.1,8l4.3,7.9l-8.9-1.4l-6.2,6.4l-1.4-8.8l-8.1-3.9l8.1-4V670l1.2-8.7
			l6.3,6.4L935,665.9z M887,646.2l7.7-1.4l-4.1,8l4.3,7.9l-8.9-1.4l-6.2,6.4l-1.4-8.8l-8.1-3.9l8-4l1.2-8.9l6.4,6.4L887,646.2z
			 M872.3,684.3l8.9-1.6l-4.1,8l4.3,7.9l-8.9-1.4l-6.2,6.5l-1.4-8.8l-8.1-3.9l8-4l1.2-8.8L872.3,684.3z M837.8,665l3.2-0.6l-3.2,6.2
			l-0.9,1.8l0.9,1.7l3.4,6.2L833,679l-0.7-0.1l-0.7,0.7l-5.6,5.8l-1.4-8.8l-8.1-3.9l8.1-4l1.2-8.8l5.4,5.4l1,0.9L837.8,665z
			 M833.2,727.8c2.3,3.1,4.4,5.6,6,8.3c1.9,3.3,3.1,7,5.2,10.2c2.3,3.6,1.4,5.9-1.8,8.3c-25.2,18.6-52.4,34.2-79.3,50.2
			c-16,9.5-32.7,17.8-49,26.9c-13.5,7.5-26.7,15.2-40.1,22.8c-10,5.7-20.1,11.2-30,17.1c-9.7,5.8-19.1,11.9-28.6,18
			c-13.2,8.4-26.3,16.9-39.5,25.4c-4.5,2.9-5.3,2.8-8.6-1.7c-1.5-2-3-4-4.2-6.1c-4.4-8-3.5-10.7,3.4-16.6
			c16.6-14.2,35.7-24.2,55.1-34c11.5-5.7,22-13.3,33.1-19.7c8.6-4.9,17.4-9.5,26.2-14c8.3-4.3,17-7.7,24.9-12.5
			c18.6-11.1,36.7-22.9,55.2-34.2c5.6-3.4,11.8-5.9,17.4-9.4c7.4-4.7,14.6-9.7,21.7-14.9c7.9-5.9,15.5-12.3,23.3-18.2
			C826.3,731.5,829.5,729.9,833.2,727.8z M589.3,938.8c3.6-2.6,7-5.3,10.8-7.6c22.8-13.8,45.6-27.5,68.5-41.1
			c9.4-5.6,19.1-10.7,28.7-16.1c13.9-7.7,27.8-15.3,41.7-23.1c13.1-7.4,25.8-15.6,39.3-22.4c13.4-6.7,24.9-16,37.2-24.3
			c12-8.2,23.8-16.7,35.8-25c2-1.4,3.4-2.3,4.5-2.7c1.5-0.5,2.4,0,3.7,1.8c0.5,0.7,1.2,1.7,1.9,2.9c1.1,1.6,2.1,3.2,3.1,4.8
			c0.5,0.7,1,1.5,1.5,2.2c1.8,2.7,3.5,5.4,5.3,8.1c2.3,3.5,1.9,5.9-1.7,8.3c-22.4,15.3-44.3,31.5-68.7,43.8
			c-8,4.1-15.4,9.6-23.2,14.1c-11.2,6.4-22.5,12.5-33.7,18.9c-21.3,12-42.5,24.2-63.7,36.2c-13.9,7.8-27.9,15.5-41.6,23.4
			c-5.5,3.1-10.4,7.1-15.7,10.5c-7.8,5-15.7,9.9-23.9,15c-7.8-5.5-9.2-13.5-12.8-20.1C584.5,943.8,586.5,940.7,589.3,938.8z
			 M617.5,993.9c5.4-3.3,11.2-6,16.5-9.4c9.3-5.9,18.1-12.5,27.5-18.1c16.1-9.5,32.5-18.3,48.8-27.5c7.7-4.3,15.1-9.1,22.8-13.4
			c15.6-8.8,30.7-18.5,46.9-25.8c23-10.3,43-25.3,64-38.7c7.9-5,15.8-10,23.5-15.2c5.7-3.8,11.2-7.9,16.7-12
			c4.9-3.7,6.5-3.8,9.8,1.4c4.1,6.4,7.5,13.3,12,21.3c-5.8,4.3-10.7,8.1-15.9,11.7c-14.1,9.9-28.3,19.8-42.5,29.5
			c-8.2,5.5-16.6,10.8-25,16c-8.6,5.4-17.3,10.6-26,15.8c-18.6,11.2-36.9,22.7-55.7,33.5c-22.1,12.7-44.6,24.8-66.9,37.1
			c-14.2,7.8-28.5,15.4-42.8,23.1c-5.7,3.1-7.5,2.8-10.5-3c-3.1-6.1-5.8-12.4-8.1-18.8C611.2,997.6,614.7,995.6,617.5,993.9z
			 M1067.8,764.3c-0.5,1.4-2.5,2.9-4,3.3c-12.7,3.4-25.6,6.4-38.3,9.7c-30.6,8-61.2,15.8-91.6,24.4c-13.2,3.7-25.9,9-38.7,13.8
			c-3.1,1.2-5.4,0.6-7-2.1c-2.3-3.7-4.7-7.4-6.7-11.3c-2.6-5.3-1.8-6.9,3.6-9.3c13.8-6.3,28.4-10.1,43-13.8
			c17.3-4.3,34.6-9,51.6-13.9c22-6.4,44.8-8.9,67.3-12.8c3.5-0.6,7-1.3,9.6-1.8C1063.3,750.4,1069.8,758.8,1067.8,764.3z M995,506.2
			c4.5,14.6,8.6,28.1,12.9,41.5c6,18.7,12.3,37.3,18.2,56c4.5,14,8.5,28.2,13,42.2c3.1,9.8,6.8,19.4,9.8,29.2
			c2.5,7.9,6,15.6,6.2,24.2c-6-3.8-7.1-10.3-9.6-15.8c-7.3-16.5-14.2-33.1-20.9-49.8c-5-12.3-9.6-24.9-14.5-37.3
			c-6.3-16.2-12.7-32.4-18.8-48.8c-3.5-9.4-6.5-19.1-9.6-28.7c-0.7-2.3-0.5-4.8-0.8-7.9C985.5,509.7,989.7,508.2,995,506.2z
			 M987,562.1l-4.1,8l4.3,7.9l-7.5-1.2l-1.4-0.2l-0.9,0.9L972,583l-1.3-8.1l-0.1-0.8l-0.1-0.1l-8-3.8l8-4l1.2-8.9l6.4,6.3L987,562.1
			z M958.5,523.1l1.2-8.9l6.4,6.3l8.9-1.6l-4.1,8l4.3,7.9l-8.9-1.4l-6.2,6.5l-1.4-8.8l-8.1-3.9L958.5,523.1z M935.5,550.5l1.2-8.8
			l6.3,6.3l8.9-1.6l-4.1,8l4.3,7.9l-8.9-1.4l-6.2,6.4l-1.4-8.8l-8.1-3.9L935.5,550.5z M921.5,578.3l1.9-0.3l7-1.3l-4.1,8l4.3,7.9
			l-8.9-1.4l-6.2,6.4l-1.4-8.8l-8.1-3.9l6.6-3.3l1.4-0.7l0.1-1l1.1-7.8l5.4,5.3L921.5,578.3z M902.3,534.1l1.2-8.8l6.3,6.3l8.9-1.6
			l-4,7.8v0.3l4.2,7.7l-7.2-1.2c-0.9,0.2-1.8,0.5-2.7,0.7l-5.3,5.5l-1.4-8.8c0,0,0,0,0-0.1l-8.1-3.9L902.3,534.1z M880.3,564
			l1.2-8.8l6.3,6.3l8.9-1.6l-4.1,8l4.3,7.9l-8.1-1.3l-0.8-0.1l-0.4,0.4l-5.9,6.1l-1.4-8.8l-8.1-3.9L880.3,564z M867.5,594.1l1-0.2
			l7.9-1.4l-4.1,8l4.3,7.9l-8.9-1.4l-6.2,6.5l-1.4-8.8l-8.1-3.9l6.3-3.2l1.7-0.8l0.2-1.3l1-7.6l6,6L867.5,594.1z M846.5,550.1
			l1.2-8.8l6.3,6.3l8.9-1.6l-4.1,8l4.3,7.9l-8.9-1.4l-6.2,6.4l-1.4-8.8l-8.1-3.9L846.5,550.1z M823.8,582.5l1.2-8.9l5.3,5.3l1.1,1.1
			l1.7-0.3l7.1-1.3l-3.3,6.3l-0.8,1.6l2,3.6l2.3,4.3l-8.2-1.3l-0.7-0.1l-0.8,0.8l-5.4,5.7l-1.4-8.8l-8.1-3.9L823.8,582.5z
			 M813.8,613.6l2.1-0.4l6.7-1.2l-4.1,8l4.3,7.9l-8.9-1.4l-6.2,6.5l-1.4-8.8l-8.1-3.9l7.7-3.9l0.3-0.2l0.1-0.8l1.1-8.1l5.5,5.5
			L813.8,613.6z M804.2,663.4l-8.9-1.4l-6.2,6.5l-1.4-8.8l-8.1-3.9l8-4l1.2-8.9l6.3,6.3l8.9-1.6l-4.1,8L804.2,663.4z M793.3,568.6
			l1.2-8.9l6.4,6.3l8.9-1.6l-4.1,7.8l-0.1,0.2l0.2,0.5l4,7.4l-7.6-1.2l-1.3-0.2l-1.1,1.2l-5.1,5.3l-1.4-8.8l-8.1-3.9L793.3,568.6z
			 M773.2,606.1l2.1-1l0.5-3.5l0.7-5.3l6.4,6.3l8.9-1.6l-4.1,8l4.3,7.9l-8.9-1.4l-6.2,6.4l-1.2-7.7l-0.2-1.2l-2.3-1.1l-5.8-2.8
			L773.2,606.1z M742.5,604.1l-0.1-0.9l-2.1-1l-6.1-2.9l8-4l1.2-8.9l6.4,6.3l8.8-1.6l-4.1,8l4.3,7.9l-6.7-1.1l-2.1-0.4l-0.8,0.9
			l-5.4,5.6L742.5,604.1z M455.2,898.2c-1.4-5.9,2-9.2,5.6-12.1c9.4-7.6,18.6-15.4,28.6-22.1c9.8-6.5,20.4-11.9,30.8-17.5
			C533,839.7,546,833,559,826.6c14.5-7.2,29.2-14.1,43.7-21.4c14.4-7.2,28.7-14.9,43.1-22.1c14.7-7.4,29.5-14.4,44.3-21.7
			c4.7-2.3,9.4-4.6,13.8-7.3c8.9-5.5,17.6-11.3,26.4-16.8c12.1-7.6,24.4-14.8,36.2-22.7c12.3-8.2,24.2-17,36.3-25.6
			c0.9-0.6,1.9-1.1,3.4-1.9c5.1,6.6,9.6,12.7,14.9,19.6c-2.8,2.3-5.2,4.8-8,6.7c-15.4,10.4-30.9,20.9-46.6,30.9
			c-11.6,7.4-23.6,14.1-35.5,20.9c-21.6,12.5-43,25.4-65,37.3c-15.2,8.2-31.1,14.9-46.7,22.3c-2,0.9-3.9,2.1-5.8,3.1
			c-15.7,7.9-31.3,16-47.1,23.6c-13.6,6.6-26.2,14.6-38.8,23c-17.4,11.7-36.1,21-57.3,23.7C465.2,898.7,460.2,898.2,455.2,898.2z
			 M496.2,944.4c-8-0.1-15.2-1-20.1-8.4c-3.1-4.7-7.1-8.8-10.7-13.1c0.5-0.6,0.9-1.1,1.4-1.7c10.5,3.2,20.8,0.5,31.1-0.6
			c12.6-1.4,25-3.9,37.5-5.9c1.4-0.2,2.7-0.6,4-0.8c4-0.5,8.2-4.7,11.6-1.4c4.4,4.3,7.9,9.8,11.1,15.1c1.9,3.2,0.1,5.7-3.5,6.8
			C538.3,940.5,517.5,944.8,496.2,944.4z M523,982.2c-8.2-1.8-11.5-9-14.9-15.9c15.3,1.2,29.7-0.7,43.9-3.9
			c6.1-1.4,12.1-3.4,18.1-5.3c7.1-2.2,9.1-1.5,12.6,5.1c0.6,1.2,1,2.5,1.4,3.8c2.1,6.3,1.5,7.8-4.5,9.8c-12.3,4-24.8,7.6-37.8,7.7
			C535.5,983.5,529,983.5,523,982.2z M572.7,1020.8c-3.7,0.3-7.9,0.4-11-1.1c-5.8-2.7-11.9-10.4-13.7-14.9
			c8.1-1.9,16.2-3.8,24.3-5.8c7.9-2,15.8-4.1,24.1-6.2c2.6,4.6,4.7,8,6.6,11.7c2.4,4.7,1.4,6.9-3.3,9.9
			C591.3,1019.7,581.8,1020,572.7,1020.8z M595,1055.2c-6.7-0.8-10.6-7.8-13.8-15.3c11.5-1.7,21.7-3.1,32.8-4.7
			c1.7,3.3,3.8,6.8,5.1,10.6c0.5,1.5-0.8,5-1.8,5.3C610,1052.9,602.2,1056,595,1055.2z M618.8,1086.4c-2.1-2.9-6.4-4.5-6-9.9h16.5
			c1.2,4.2,2.5,8.5,3.7,12.7C624.5,1092.8,623.5,1092.7,618.8,1086.4z M638,1118.1c6.6-0.1,6.6-0.1,7.2,12.3
			C642.8,1126.5,640.7,1122.5,638,1118.1z M643.8,1082.2c-1.7-4.6-2.9-9.4-4.5-14c-2.3-6.8-1.6-9.2,4.6-12.9
			c13.7-8.1,27.4-16.3,41.4-23.9c10.6-5.7,21.9-10.1,32.4-16c16.3-9,32.3-18.7,48.4-28.1c3.3-1.9,6.6-3.8,10.1-5.4
			c24.7-11.6,47.2-26.9,69.9-41.7c21.2-13.8,42.2-27.8,61.7-43.9c3.8-3.1,7.5-6.3,11.5-9c1.2-0.8,4.1-0.7,5.1,0.2
			c2,1.7,3.4,4.3,4.7,6.6c2.3,4,4.5,8,7.7,13.8c-3.3,3.8-6.3,8.4-10.4,11.8c-13.2,10.8-26.6,21.3-40.2,31.5
			c-13.9,10.3-27.9,20.4-42.3,29.9c-8.2,5.5-17.3,9.6-25.9,14.5c-16.9,9.6-33.7,19.5-50.7,29.1c-9.8,5.5-19.9,10.5-29.8,15.9
			c-13.4,7.4-26.8,15-40.1,22.6c-16.2,9.2-32.4,18.4-49.5,28.2C646.3,1087.9,644.8,1085.1,643.8,1082.2z M977.8,956.2
			c-6.4,7.8-12.6,15.8-19.2,23.5c-17.5,20.2-39,35.2-62.4,47.9c-12.1,6.5-24.1,13.1-36.3,19.4c-12.4,6.4-25.1,12.4-37.5,18.9
			c-12.6,6.7-25,13.7-37.5,20.7c-11.5,6.5-23.2,12.7-34.3,19.9c-18.7,12-37.1,24.5-55.4,37c-9.8,6.6-19.2,13.7-29.7,21.3
			c-1-2-2-3.3-2.3-4.8c-1.6-7.5-2.9-15-4.4-22.5c-1.1-5.7,0.5-9.7,5.5-13.3c14-9.8,28-19.4,43-27.6c12.8-6.9,25-15,37.8-21.8
			c15.5-8.2,31.5-15.6,47.1-23.6c11.7-6,23.2-12.5,34.8-18.7c3.4-1.8,6.8-3.6,10.2-5.3c23.4-11.8,45.8-25.1,66.7-40.8
			c17.4-13,33.6-27.4,49.2-42.5c2.9-2.8,5.3-6.2,8.2-9.6c7,2.7,12,7.4,16.7,12.3C980.8,949.7,980.5,952.9,977.8,956.2z M1071.9,859
			c-7.4,2-14.8,4.2-21.7,7.5c-17.8,8.5-34.9,18.3-52.8,26.2c-14.5,6.4-29.9,10.9-45,16c-5.9,2-8.2,1.1-11.3-3.7
			c-2.9-4.6-5.4-9.4-8.6-15c2.7-1.3,4.9-3.1,7.3-3.4c20.9-2.6,39.1-12.5,58.2-20.3c9.4-3.8,18.9-7.4,28.3-11.1
			c12.5-4.9,24.9-10,37.4-14.7c6.4-2.4,13-4.5,19.6-6.3c5.8-1.6,9,0.4,10.3,6.3c0.9,4.2,1.2,8.6,1.8,13.4
			C1087.4,855.7,1079.6,857,1071.9,859z M1257.6,533.4c-9.7,30.4-19.8,60.6-30.5,90.7c-5.8,16.4-13.4,32.2-19.6,48.5
			c-5.4,14-10,28.2-15,42.4c-0.9,2.7-2.2,5.3-3.3,7.9c-0.7-0.2-1.3-0.4-2-0.5c0.4-3.2,0.3-6.6,1.2-9.7c4.6-15.1,9.5-30,14.2-45.1
			c1.4-4.4,2.2-9,3.5-13.5c5-18.7,10.1-37.3,15.1-56c7.6-28.1,15.3-56.3,23-84.4c1.8-6.5,4.2-12.9,6.9-20.9c5,2.1,9.1,3.8,14.2,5.9
			C1262.7,510.7,1261.1,522.3,1257.6,533.4z M1540.8,624.4c-7.2,9.3-14.9,18.1-22.1,27.3c-2.7,3.4-4.3,7.6-6.6,11.2
			c-3.4,5.4-6.3,6-11.4,2.2c-6.1-4.6-12.1-9.4-17.8-14.4c-7.6-6.6-7.2-9.9,0.3-16.3c12.1-10.4,25.7-17.5,41.4-20.4
			c6.5-1.2,13-1.1,20.8,0.2C1543.6,618.3,1542.8,621.8,1540.8,624.4z M1369.8,796.8c4.8-10,8.3-20.6,12.9-30.7
			c8.5-18.6,13.5-38.5,20.8-57.5c3.5-8.9,7.7-17.5,11.6-26.2c7.4-16.1,14.5-32.3,22.4-48.2c1.2-2.5,2.5-5.1,3.8-7.6
			c1.1-2.2,2.2-4.4,3.4-6.6c4.1-8,8.4-15.9,12.6-23.8c1.4-2.6,2.7-5.1,4-7.7c5-9.7,9.8-19.5,14.7-29.3c2.7-5.4,4.1-6.4,9.6-4.1
			c7.3,3.1,14.8,6.5,20.9,11.3c11.6,9.2,22.4,19.3,33.3,29.3c2.1,1.9,3.3,4.7,5.8,8.4c-4,0.5-5.8,1-7.6,0.9
			c-19.5-0.4-36.7,6.4-52.3,17.4c-5.4,3.9-9.8,9.4-14.5,14.2c-1,1-1.6,2.3-2.5,3.2c-1.1,1.1-2.2,2.1-3.2,3.2c-1,1-2,2-2.9,3.1
			c-0.1,0.2-0.3,0.3-0.4,0.4c-1.1,1.2-2.2,2.5-3.3,3.7c-0.1,0.1-0.2,0.2-0.3,0.4c-0.9,1.1-1.8,2.2-2.7,3.3c-0.3,0.4-0.6,0.7-0.9,1.1
			c-1,1.2-2,2.5-2.9,3.7c-0.7,1-1.4,1.9-2.1,2.9c-1.1,1.5-2.1,2.9-3.1,4.4l-3,4.5c-0.5,0.7-1,1.4-1.4,2.2c-0.6,0.8-1.1,1.7-1.6,2.6
			c-0.8,1.2-1.6,2.5-2.3,3.7c-0.5,0.8-0.9,1.6-1.4,2.3c-0.9,1.5-1.8,3.1-2.7,4.6c-1.2,2.1-2.4,4.1-3.5,6.2c-1.2,2.1-2.4,4.3-3.6,6.4
			c-7.1,12.9-14.5,25.7-21.5,38.6c-4.7,8.6-8.9,17.4-13.4,26.1c-2.3,4.3-4.8,8.5-7,12.9c-5.2,10.2-10.3,20.5-15.4,30.7
			c-0.7,1.4-1.7,2.6-3.1,3.7C1366.6,805.9,1367.4,801.4,1369.8,796.8z M1611.3,889.3c-2.2,2.5-4.4,5.1-6.6,7.6
			c-2,2.3-3.9,4.5-5.9,6.8c-11.1,12.8-22.9,25.1-34,37.9c-10.4,12-20.3,24.4-30.6,36.6c-3,3.6-6.2,7-9.4,10.4
			c-1.1,1.2-2.5,2.2-3.4,3.6c-8.3,14.3-19.8,26.1-29.2,39.5c-8.8,12.5-17.8,25-26.3,37.7c-2.7,4.1-4.3,8.8-6.3,13.3
			c-4.2,9.2-6.9,9.9-15.9,5.9c-13.1-5.7-26.2-11.3-39.6-16.2c-22.9-8.2-45.4-16.9-66.9-28.1c-14-7.3-25.9-17.6-36.7-29
			c-8.1-8.5-16.4-17.1-21.5-27.8c-3.1-6.4-5.8-13-7.8-19.7c-1.3-4.5-0.2-9.6,3.5-12.9c9.6-9,19.1-18.1,29.5-26.2
			c7.6-5.9,12.9-13.3,18.6-20.6c1.6-2.1,2.9-4.4,4.4-6.6c7,4.8,7.6,5.8,4.1,11.9c-2.7,4.7-5.9,9.2-9.2,13.5
			c-6.9,8.9-14,17.5-20.9,26.3c-1.4,1.7-2.2,3.7-3.3,5.5c4.4,6,8.5,6,12.8,0.2c5.9-7.8,11.9-15.7,17.8-23.5c3.8-5,7.6-10,11.5-14.9
			c2.9-3.6,5.1-4,9.2-1.6c1.9,1.1,3.6,2.5,5.2,4c12.9,11.9,25.7,23.8,38.6,35.6c5.5,5,13,2.9,16-4.1c2.5-6,5.3-12,7.5-18.2
			c2-5.6,5.9-7.8,11.3-7.5c9.4,0.6,18.7,1.3,27.9,2.3c15.5,1.8,31,3.9,46.6,5.8c4.6,0.6,9.2,1.2,13.9,1.3c2.5,0,5.2-0.9,8.6-1.6
			c-2.5-6.1-4.6-11.3-6.8-16.5c-2.7-6.8-1.3-11.8,4.7-16.4c9.1-7,18.2-14.1,27.4-21.1c1.3-1,2.8-1.7,4.1-2.4
			c-4.5-8.3-11.6-11.1-17.7-15.1c-6.6-4.4-13.7-8.2-20.4-12.5c-2.4-1.6-4.4-3.9-7-6.3c3-5.1,5.7-9.7,8.6-14.5
			c-1.7-3.5-5.1-3.1-8.3-3.5c-16.1-1.7-32.2-3.5-48.3-5.3c-1.3-0.1-2.5-0.9-4.2-1.6c1.7-5.9,5.4-10.4,9.4-14.2
			c14.3-13.6,28.9-26.8,43.4-40.2c2.5-2.3,6.7-4.1,5.6-8.2c-1.1-4.1-5.5-4.1-9-4.5c-8.4-1-17-1.7-25.4-2.4c-6.6-0.5-7.2-1.2-7.6-7.9
			c-0.6-11.1,3.1-21.5,5.2-32.1c0.9-4.8,2-9.6,3.1-14.7c-4.1-2.9-6.8-1-9.8,0.5c-5.6,2.9-11.3,5.7-16.9,8.4
			c-6.9,3.4-14.2,3.5-22.9,2.5c0.5-2.5,0.4-5,1.4-6.8c5.7-9.3,11.7-18.4,17.7-27.6c3.9-6,8-11.9,12.1-17.9c0.4-0.6,0.8-1.2,1.2-1.8
			c3.6-5.3,6.5-5.9,10.3-1c8.5,10.9,20.2,17.3,32.1,23.6c3.9,2,7.6,4.4,11.2,6.9c10.8,7.5,21.4,15.3,32.4,22.5
			c4.3,2.8,9.4,4.5,14.1,6.7c14.6,7,29.1,14.3,43.9,20.8c25.1,11,49.4,23.8,75.5,32.5c4.1,1.4,8.2,3.2,11.7,5.8
			c1.8,1.3,2.9,4.6,2.7,6.9c-0.2,2.5-1.9,5.1-3.5,7.2c-16.4,20.9-32.6,42-49.4,62.5c-4.7,5.7-9.4,11.4-14.2,17
			c-2.5,2.9-5,5.9-7.5,8.8c-0.5,0.9-0.9,1.5-1.4,2C1618.7,880.9,1615.1,885.1,1611.3,889.3z M1826.3,888.3
			c-17.3-3.1-34.8-5.1-51.4-11.4c-6.7-2.5-13.1-5.7-19.6-8.6c-7.1-3.3-12.4-2.4-16.5,4.1c-9.6,15.2-19.5,30.4-27.9,46.4
			c-1,1.9-1.9,3.7-2.9,5.6c-0.4,0.8-0.8,1.7-1.2,2.5c-0.7,1.5-1.4,3-2.1,4.5c-0.7,1.4-1.3,2.9-2,4.3c-2.7,6-5.3,12-8,18
			c-0.8,1.8-1.6,3.7-2.5,5.5c-0.8,1.8-1.7,3.7-2.5,5.5s-1.7,3.5-2.6,5.2c-8.2,16.4-13.8,33.8-20.9,50.6
			c-7.5,17.8-14.4,35.8-19.6,54.5c-5.3,18.9-10.9,37.7-16.5,56.4c-1.6,5.4-3.7,10.7-5.6,16.1c-0.5-0.1-1-0.2-1.4-0.4
			c1-6.4,1.6-12.8,3.1-19.1c2.8-12.2,5.8-24.4,9-36.5c3.9-14.7,7.7-29.5,12.3-44c6.3-19.7,13.1-39.3,20.3-58.8
			c0.8-2.2,1.6-4.4,2.5-6.6c0.6-1.5,1.2-3.1,1.8-4.6c0.5-1.2,1-2.5,1.4-3.7c0.6-1.6,1.3-3.3,2-4.9c0.9-2.1,1.7-4.2,2.6-6.2
			c1.2-2.9,2.5-5.7,3.8-8.6c0.7-1.5,1.4-3.1,2.1-4.6c5.2-11.1,11.9-21.5,17.7-32.3c4.1-7.6,7.6-15.6,11.7-23.1
			c2.8-5,6.5-9.5,9.6-14.3c4.1-6.5,8-13,11.8-19.6c3-5.2,5.2-5.8,10.7-3.1c9.1,4.5,18,9.4,27.4,13.2c15.3,6.2,31.2,10.8,48.1,10
			c1.6-0.1,3.3,0,4.9,0.1c0.5,0,1,0.4,2.1,0.8v6.3h0.1C1827.3,887.9,1826.8,888.3,1826.3,888.3z"/>
		<path class="st0" d="M1854.1,1138c-3.3-4-7.6-6-12.7-6c-4.7,0-8.7,1.6-11.7,4.7c-3,3-4.5,7.1-4.6,12l0,0c0,0.1,0,0.2,0,0.4
			c0,4.9,1.5,8.9,4.4,12c2.3,2.4,5,3.9,8,4.4c0.8,0.2,1.6,0.2,2.4,0.2c3.7,0,6.8-1.4,9.2-4.3c-0.4,5.8-1.3,9.6-2.7,11.5
			c-0.6,0.8-1.3,1.5-2.1,1.9c-0.9,0.6-2,0.9-3.1,0.9c-1.6,0-2.9-0.5-3.9-1.4s-1.6-2.3-1.8-4.3l-9.5,1c0.7,4.2,2.3,7.3,4.7,9.4
			c2.5,2.1,5.7,3.2,9.7,3.2c3.3,0,6.2-0.7,8.7-2.2c1.8-1,3.3-2.3,4.8-4c3.5-4.1,5.2-10.8,5.2-20
			C1859.1,1148.5,1857.4,1141.9,1854.1,1138z M1846.1,1156.4c-1.3,1.5-2.9,2.2-4.8,2.2c-2,0-3.6-0.8-4.9-2.3s-2-3.9-2-7.2
			c0-3.2,0.6-5.5,1.8-7c1.2-1.4,2.7-2.1,4.5-2.1c1.9,0,3.6,0.9,5,2.6c1.4,1.7,2.2,4.1,2.2,7.3
			C1848.1,1152.8,1847.4,1154.9,1846.1,1156.4z"/>
		<polygon class="st0" points="1777.6,1089.4 1777.6,1097.9 1738.8,1097.9 1738.8,1047.3 1776.6,1047.3 1776.6,1055.9 
			1749.1,1055.9 1749.1,1067.1 1774.6,1067.1 1774.6,1075.6 1749.1,1075.6 1749.1,1089.4 		"/>
		<path class="st0" d="M1825.1,1083.2c0,2.9-0.8,5.6-2.4,8.2c-1.6,2.5-3.9,4.4-6.9,5.7c-3,1.2-6.7,1.8-11.1,1.8
			c-6.4,0-11.4-1.5-14.9-4.4c-3.5-3-5.5-7.3-6.2-12.9l10-1c0.6,3.3,1.8,5.8,3.7,7.4c1.8,1.6,4.3,2.3,7.4,2.3c3.3,0,5.8-0.7,7.5-2.1
			s2.5-3,2.5-4.9c0-1.2-0.3-2.2-1-3.1c-0.7-0.8-2-1.6-3.7-2.2c-1.2-0.4-3.9-1.2-8.2-2.2c-5.5-1.4-9.4-3-11.6-5
			c-3.1-2.8-4.7-6.2-4.7-10.2c0-2.6,0.7-5,2.2-7.2s3.6-3.9,6.4-5.1s6.1-1.8,10-1.8c6.4,0,11.2,1.4,14.5,4.2
			c3.2,2.8,4.9,6.5,5.1,11.1l-10.3,0.5c-0.4-2.6-1.4-4.5-2.8-5.6c-1.5-1.1-3.6-1.7-6.5-1.7c-3,0-5.3,0.6-7,1.8
			c-1.1,0.8-1.6,1.8-1.6,3.1c0,1.2,0.5,2.2,1.5,3.1c1.3,1.1,4.5,2.2,9.5,3.4c5,1.2,8.7,2.4,11.1,3.7c2.4,1.2,4.3,3,5.7,5.1
			C1824.6,1077.3,1825.1,1080,1825.1,1083.2z"/>
		<polygon class="st0" points="1870.8,1047.3 1870.8,1055.9 1855.6,1055.9 1855.6,1097.9 1845.4,1097.9 1845.4,1055.9 
			1830.1,1055.9 1830.1,1047.3 		"/>
		<path class="st0" d="M1898.9,1132.9v7c-2.7,2.7-5.6,6.6-8.4,11.6c-2.9,5.1-5,10.4-6.5,16.1s-2.2,10.7-2.2,15.2h-9.4
			c0.2-7,1.6-14.1,4.3-21.4c2.8-7.3,6.4-13.8,11-19.5h-22.2v-9L1898.9,1132.9L1898.9,1132.9z"/>
		<rect x="1897.1" y="1088.2" class="st0" width="9.8" height="9.7"/>
	</g>
</g>
</svg>
